<?xml version="1.0" encoding="UTF-8"?>
<svg id="Calque_1" xmlns="http://www.w3.org/2000/svg" version="1.1" viewBox="0 0 221.15 205.36">
  <!-- Generator: Adobe Illustrator 30.0.0, SVG Export Plug-In . SVG Version: 2.1.1 Build 123)  -->
  <defs>
    <style>
      .st0 {
        fill: #fff;
      }
    </style>
  </defs>
  <g>
    <path class="st0" d="M101.78,87.94c-.61,0-1.1.48-1.1,1.08s.49,1.08,1.1,1.08,1.07-.48,1.07-1.08-.49-1.08-1.07-1.08"/>
    <path class="st0" d="M101.78,83.46c-.61,0-1.1.49-1.1,1.08s.49,1.09,1.1,1.09,1.07-.49,1.07-1.09-.49-1.08-1.07-1.08"/>
    <path class="st0" d="M101.78,92.42c-.61,0-1.1.49-1.1,1.08s.49,1.08,1.1,1.08,1.07-.48,1.07-1.08-.49-1.08-1.07-1.08"/>
    <path class="st0" d="M101.78,101.39c-.61,0-1.1.49-1.1,1.09s.49,1.09,1.1,1.09,1.07-.5,1.07-1.09-.49-1.09-1.07-1.09"/>
    <path class="st0" d="M101.78,96.9c-.61,0-1.1.49-1.1,1.09s.49,1.08,1.1,1.08,1.07-.48,1.07-1.08-.49-1.09-1.07-1.09"/>
    <path class="st0" d="M101.77,63.19c.59,0,1.08-.49,1.08-1.1s-.5-1.07-1.08-1.07-1.09.49-1.09,1.07c0,.61.5,1.1,1.09,1.1"/>
    <path class="st0" d="M101.78,78.96c-.61,0-1.1.49-1.1,1.09s.49,1.09,1.1,1.09,1.07-.49,1.07-1.09-.49-1.09-1.07-1.09"/>
    <path class="st0" d="M101.78,105.88c-.61,0-1.1.48-1.1,1.08s.49,1.09,1.1,1.09,1.07-.49,1.07-1.09-.49-1.08-1.07-1.08"/>
    <path class="st0" d="M110.74,52.05c-.6,0-1.09.5-1.09,1.09s.49,1.09,1.09,1.09,1.07-.49,1.07-1.09-.48-1.09-1.07-1.09"/>
    <path class="st0" d="M110.74,83.46c-.6,0-1.09.49-1.09,1.08s.49,1.09,1.09,1.09,1.07-.49,1.07-1.09-.48-1.08-1.07-1.08"/>
    <path class="st0" d="M110.74,61.02c-.6,0-1.09.49-1.09,1.07s.49,1.1,1.09,1.1,1.07-.49,1.07-1.1-.48-1.07-1.07-1.07"/>
    <path class="st0" d="M110.74,65.51c-.6,0-1.09.48-1.09,1.08s.49,1.08,1.09,1.08,1.07-.49,1.07-1.08-.48-1.08-1.07-1.08"/>
    <path class="st0" d="M110.74,74.48c-.6,0-1.09.49-1.09,1.08s.49,1.08,1.09,1.08,1.07-.49,1.07-1.08-.48-1.08-1.07-1.08"/>
    <path class="st0" d="M110.74,78.96c-.6,0-1.09.49-1.09,1.09s.49,1.09,1.09,1.09,1.07-.49,1.07-1.09-.48-1.09-1.07-1.09"/>
    <path class="st0" d="M110.74,69.99c-.6,0-1.09.48-1.09,1.09s.49,1.08,1.09,1.08,1.07-.49,1.07-1.08-.48-1.09-1.07-1.09"/>
    <path class="st0" d="M115.23,110.37c-.6,0-1.09.48-1.09,1.07s.49,1.09,1.09,1.09,1.08-.49,1.08-1.09-.5-1.07-1.08-1.07"/>
    <path class="st0" d="M115.23,105.88c-.6,0-1.09.48-1.09,1.08s.49,1.09,1.09,1.09,1.08-.49,1.08-1.09-.49-1.08-1.08-1.08"/>
    <path class="st0" d="M110.74,47.56c-.6,0-1.09.49-1.09,1.08s.49,1.08,1.09,1.08,1.07-.48,1.07-1.08-.48-1.08-1.07-1.08"/>
    <path class="st0" d="M110.74,56.53c-.6,0-1.09.49-1.09,1.09s.49,1.08,1.09,1.08,1.07-.48,1.07-1.08-.48-1.09-1.07-1.09"/>
    <path class="st0" d="M101.78,69.99c-.61,0-1.1.48-1.1,1.09s.49,1.08,1.1,1.08,1.07-.49,1.07-1.08-.49-1.09-1.07-1.09"/>
    <path class="st0" d="M101.78,110.37c-.61,0-1.1.48-1.1,1.07s.49,1.09,1.1,1.09,1.07-.49,1.07-1.09-.5-1.07-1.07-1.07"/>
    <path class="st0" d="M110.74,110.37c-.6,0-1.09.48-1.09,1.07s.49,1.09,1.09,1.09,1.07-.49,1.07-1.09-.48-1.07-1.07-1.07"/>
    <path class="st0" d="M101.78,65.51c-.61,0-1.1.48-1.1,1.08s.49,1.08,1.1,1.08,1.07-.49,1.07-1.08-.49-1.08-1.07-1.08"/>
    <path class="st0" d="M110.74,87.94c-.6,0-1.09.48-1.09,1.08s.49,1.08,1.09,1.08,1.07-.48,1.07-1.08-.48-1.08-1.07-1.08"/>
    <path class="st0" d="M101.78,74.48c-.61,0-1.1.49-1.1,1.08s.49,1.08,1.1,1.08,1.07-.49,1.07-1.08-.49-1.08-1.07-1.08"/>
    <path class="st0" d="M110.74,92.42c-.6,0-1.09.49-1.09,1.08s.49,1.08,1.09,1.08,1.07-.48,1.07-1.08-.48-1.08-1.07-1.08"/>
    <path class="st0" d="M110.74,96.9c-.6,0-1.09.49-1.09,1.09s.49,1.08,1.09,1.08,1.07-.48,1.07-1.08-.48-1.09-1.07-1.09"/>
    <path class="st0" d="M110.74,105.88c-.6,0-1.09.48-1.09,1.08s.49,1.09,1.09,1.09,1.07-.49,1.07-1.09-.48-1.08-1.07-1.08"/>
    <path class="st0" d="M110.74,101.39c-.6,0-1.09.49-1.09,1.09s.49,1.09,1.09,1.09,1.07-.5,1.07-1.09-.48-1.09-1.07-1.09"/>
    <path class="st0" d="M128.69,49.72c.59,0,1.08-.48,1.08-1.08s-.49-1.08-1.08-1.08-1.09.49-1.09,1.08.49,1.08,1.09,1.08"/>
    <path class="st0" d="M115.23,101.39c-.6,0-1.09.49-1.09,1.09s.49,1.09,1.09,1.09,1.08-.5,1.08-1.09-.49-1.09-1.08-1.09"/>
    <path class="st0" d="M133.17,52.05c-.6,0-1.09.5-1.09,1.09s.49,1.09,1.09,1.09,1.09-.49,1.09-1.09-.49-1.09-1.09-1.09"/>
    <path class="st0" d="M133.17,49.72c.61,0,1.09-.48,1.09-1.08s-.49-1.08-1.09-1.08-1.09.49-1.09,1.08.49,1.08,1.09,1.08"/>
    <path class="st0" d="M137.67,47.56c-.61,0-1.09.49-1.09,1.08s.48,1.08,1.09,1.08,1.07-.48,1.07-1.08-.48-1.08-1.07-1.08"/>
    <path class="st0" d="M128.69,54.22c.59,0,1.08-.48,1.08-1.08,0-.6-.49-1.1-1.08-1.1s-1.09.5-1.09,1.09.49,1.09,1.09,1.09"/>
    <path class="st0" d="M124.2,58.7c.59,0,1.07-.48,1.07-1.08s-.48-1.09-1.07-1.09-1.1.49-1.1,1.09.5,1.08,1.1,1.08"/>
    <path class="st0" d="M128.69,58.7c.59,0,1.08-.48,1.08-1.08s-.48-1.09-1.08-1.09-1.09.49-1.09,1.09.49,1.08,1.09,1.08"/>
    <path class="st0" d="M124.21,54.22c.59,0,1.07-.49,1.07-1.09s-.48-1.09-1.07-1.09-1.1.5-1.1,1.09.5,1.09,1.1,1.09"/>
    <path class="st0" d="M137.67,56.53c-.61,0-1.09.49-1.09,1.09s.48,1.08,1.09,1.08,1.07-.48,1.07-1.08-.48-1.09-1.07-1.09"/>
    <path class="st0" d="M124.21,49.72c.59,0,1.07-.48,1.07-1.08s-.48-1.08-1.07-1.08-1.1.49-1.1,1.08.5,1.08,1.1,1.08"/>
    <path class="st0" d="M142.15,63.19c.59,0,1.08-.49,1.08-1.1s-.49-1.07-1.08-1.07-1.09.49-1.09,1.07c0,.61.49,1.1,1.09,1.1"/>
    <path class="st0" d="M187,63.19c.59,0,1.08-.49,1.08-1.1s-.49-1.07-1.08-1.07-1.09.49-1.09,1.07c0,.61.5,1.1,1.09,1.1"/>
    <path class="st0" d="M187,58.7c.59,0,1.08-.48,1.08-1.08s-.49-1.09-1.08-1.09-1.09.49-1.09,1.09.5,1.08,1.09,1.08"/>
    <path class="st0" d="M101.77,58.7c.59,0,1.08-.48,1.08-1.08s-.5-1.09-1.08-1.09-1.09.49-1.09,1.09.5,1.08,1.09,1.08"/>
    <path class="st0" d="M187,49.72c.59,0,1.08-.48,1.08-1.08s-.49-1.08-1.08-1.08-1.09.49-1.09,1.08.5,1.08,1.09,1.08"/>
    <path class="st0" d="M142.15,58.7c.59,0,1.08-.48,1.08-1.08s-.49-1.09-1.08-1.09-1.09.49-1.09,1.09.49,1.08,1.09,1.08"/>
    <path class="st0" d="M137.67,52.05c-.61,0-1.09.5-1.09,1.09s.48,1.09,1.09,1.09,1.07-.49,1.07-1.09-.48-1.09-1.07-1.09"/>
    <path class="st0" d="M142.15,49.72c.59,0,1.08-.48,1.08-1.08s-.49-1.08-1.08-1.08-1.09.49-1.09,1.08.49,1.08,1.09,1.08"/>
    <path class="st0" d="M119.71,49.72c.61,0,1.08-.48,1.08-1.08s-.48-1.08-1.08-1.08-1.09.49-1.09,1.08.49,1.08,1.09,1.08"/>
    <path class="st0" d="M142.15,54.22c.59,0,1.07-.48,1.08-1.08,0-.59-.49-1.1-1.08-1.1s-1.09.5-1.09,1.09.49,1.09,1.09,1.09"/>
    <path class="st0" d="M187,54.22c.59,0,1.08-.48,1.08-1.08,0-.59-.49-1.1-1.08-1.1s-1.09.5-1.09,1.09.5,1.09,1.09,1.09"/>
    <path class="st0" d="M106.25,99.07c.61,0,1.09-.48,1.09-1.08s-.49-1.09-1.09-1.09-1.07.49-1.07,1.09.49,1.08,1.07,1.08"/>
    <path class="st0" d="M106.25,94.58c.61,0,1.09-.48,1.09-1.08s-.49-1.08-1.09-1.08-1.07.49-1.07,1.08.49,1.08,1.07,1.08"/>
    <path class="st0" d="M106.25,103.56c.61,0,1.09-.5,1.09-1.09s-.49-1.08-1.09-1.08-1.07.49-1.07,1.08.49,1.09,1.07,1.09"/>
    <path class="st0" d="M106.25,90.1c.61,0,1.09-.48,1.09-1.08s-.49-1.07-1.09-1.07-1.07.48-1.07,1.07.49,1.08,1.07,1.08"/>
    <path class="st0" d="M101.77,54.22c.59,0,1.08-.49,1.08-1.09s-.5-1.09-1.08-1.09-1.09.5-1.09,1.09.49,1.09,1.09,1.09"/>
    <path class="st0" d="M106.25,85.62c.61,0,1.09-.49,1.09-1.09s-.49-1.08-1.09-1.08-1.07.49-1.07,1.08.49,1.09,1.07,1.09"/>
    <path class="st0" d="M101.78,49.72c.58,0,1.07-.48,1.07-1.08s-.5-1.08-1.07-1.08c-.61,0-1.1.49-1.1,1.08s.49,1.08,1.1,1.08"/>
    <path class="st0" d="M106.25,108.04c.61,0,1.09-.49,1.09-1.09s-.49-1.08-1.09-1.08-1.07.48-1.07,1.08.49,1.09,1.07,1.09"/>
    <path class="st0" d="M106.25,112.54c.61,0,1.09-.49,1.09-1.09s-.49-1.07-1.09-1.07-1.07.48-1.07,1.07.49,1.09,1.07,1.09"/>
    <path class="st0" d="M119.71,58.7c.59,0,1.08-.48,1.08-1.08s-.49-1.09-1.08-1.09-1.09.49-1.09,1.09.49,1.08,1.09,1.08"/>
    <path class="st0" d="M106.25,54.22c.61,0,1.09-.49,1.09-1.09s-.49-1.09-1.09-1.09-1.07.5-1.07,1.09.49,1.09,1.07,1.09"/>
    <path class="st0" d="M106.25,49.72c.61,0,1.09-.48,1.09-1.08s-.49-1.08-1.09-1.08-1.07.49-1.07,1.08.49,1.08,1.07,1.08"/>
    <path class="st0" d="M119.71,54.22c.59,0,1.08-.48,1.08-1.08s-.48-1.1-1.08-1.1-1.09.5-1.09,1.09.49,1.09,1.09,1.09"/>
    <path class="st0" d="M106.25,58.7c.61,0,1.09-.48,1.09-1.08s-.49-1.09-1.09-1.09-1.07.49-1.07,1.09.49,1.08,1.07,1.08"/>
    <path class="st0" d="M106.25,67.67c.61,0,1.09-.49,1.09-1.09s-.49-1.07-1.09-1.07-1.07.48-1.07,1.07.49,1.09,1.07,1.09"/>
    <path class="st0" d="M106.25,63.19c.61,0,1.09-.49,1.09-1.1s-.49-1.07-1.09-1.07-1.07.49-1.07,1.07c0,.61.49,1.1,1.07,1.1"/>
    <path class="st0" d="M106.25,76.64c.61,0,1.09-.49,1.09-1.08s-.49-1.08-1.09-1.08-1.07.49-1.07,1.08.49,1.08,1.07,1.08"/>
    <path class="st0" d="M106.25,72.15c.61,0,1.09-.49,1.09-1.08s-.49-1.08-1.09-1.08-1.07.48-1.07,1.08.49,1.08,1.07,1.08"/>
    <path class="st0" d="M106.25,81.13c.61,0,1.09-.49,1.09-1.09s-.49-1.09-1.09-1.09-1.07.49-1.07,1.09.49,1.09,1.07,1.09"/>
    <path class="st0" d="M119.71,94.58c.61,0,1.08-.48,1.08-1.08s-.48-1.08-1.08-1.08-1.09.49-1.09,1.08.48,1.08,1.09,1.08"/>
    <path class="st0" d="M164.58,110.37c-.6,0-1.09.48-1.09,1.07s.49,1.09,1.09,1.09,1.08-.49,1.08-1.09-.5-1.07-1.08-1.07"/>
    <path class="st0" d="M160.1,110.37c-.61,0-1.09.48-1.09,1.07s.48,1.09,1.09,1.09,1.07-.49,1.07-1.09-.49-1.07-1.07-1.07"/>
    <path class="st0" d="M155.6,110.37c-.6,0-1.08.48-1.08,1.07s.48,1.09,1.08,1.09,1.07-.49,1.07-1.09-.48-1.07-1.07-1.07"/>
    <path class="st0" d="M169.06,110.37c-.59,0-1.08.48-1.08,1.07s.49,1.09,1.08,1.09,1.07-.49,1.07-1.09-.48-1.07-1.07-1.07"/>
    <path class="st0" d="M178.02,110.37c-.6,0-1.09.48-1.09,1.07s.49,1.09,1.09,1.09,1.09-.49,1.09-1.09-.49-1.07-1.09-1.07"/>
    <path class="st0" d="M151.11,110.37c-.58,0-1.07.48-1.07,1.07s.49,1.09,1.07,1.09,1.08-.49,1.08-1.09-.48-1.07-1.08-1.07"/>
    <path class="st0" d="M173.54,110.37c-.6,0-1.09.48-1.09,1.07s.49,1.09,1.09,1.09,1.08-.49,1.08-1.09-.48-1.07-1.08-1.07"/>
    <path class="st0" d="M133.17,105.88c-.58,0-1.07.48-1.07,1.08s.49,1.09,1.07,1.09,1.09-.49,1.09-1.09-.49-1.08-1.09-1.08"/>
    <path class="st0" d="M115.23,96.9c-.6,0-1.09.49-1.09,1.09s.49,1.08,1.09,1.08,1.08-.48,1.08-1.08-.49-1.09-1.08-1.09"/>
    <path class="st0" d="M146.63,110.37c-.6,0-1.09.48-1.09,1.07s.49,1.09,1.09,1.09,1.09-.49,1.09-1.09-.49-1.07-1.09-1.07"/>
    <path class="st0" d="M133.17,110.37c-.6,0-1.09.48-1.09,1.07s.49,1.09,1.09,1.09,1.09-.49,1.09-1.09-.49-1.07-1.09-1.07"/>
    <path class="st0" d="M133.17,67.67c.61,0,1.09-.49,1.09-1.09s-.49-1.07-1.09-1.07-1.07.48-1.07,1.07.49,1.09,1.07,1.09"/>
    <path class="st0" d="M138.73,111.44c0-.59-.48-1.07-1.07-1.07s-1.09.48-1.09,1.07.48,1.09,1.09,1.09,1.07-.49,1.07-1.09"/>
    <path class="st0" d="M182.51,110.37c-.6,0-1.09.48-1.09,1.07s.49,1.09,1.09,1.09,1.08-.49,1.08-1.09-.49-1.07-1.08-1.07"/>
    <path class="st0" d="M187,78.96c-.6,0-1.09.49-1.09,1.09s.5,1.09,1.09,1.09,1.09-.49,1.09-1.09-.5-1.09-1.09-1.09"/>
    <path class="st0" d="M187,83.46c-.6,0-1.09.49-1.09,1.08s.5,1.09,1.09,1.09,1.09-.49,1.09-1.09-.5-1.08-1.09-1.08"/>
    <path class="st0" d="M187,74.48c-.6,0-1.09.49-1.09,1.08s.5,1.08,1.09,1.08,1.09-.49,1.09-1.08-.5-1.08-1.09-1.08"/>
    <path class="st0" d="M187,65.51c-.6,0-1.09.48-1.09,1.08s.5,1.08,1.09,1.08,1.09-.49,1.09-1.08-.5-1.08-1.09-1.08"/>
    <path class="st0" d="M187,87.94c-.6,0-1.09.48-1.09,1.08s.5,1.08,1.09,1.08,1.09-.48,1.09-1.08-.5-1.08-1.09-1.08"/>
    <path class="st0" d="M187,69.99c-.6,0-1.09.48-1.09,1.09s.5,1.08,1.09,1.08,1.09-.49,1.09-1.08-.5-1.09-1.09-1.09"/>
    <path class="st0" d="M187,96.9c-.6,0-1.09.49-1.09,1.09s.5,1.08,1.09,1.08,1.09-.48,1.09-1.08-.5-1.09-1.09-1.09"/>
    <path class="st0" d="M187,92.42c-.6,0-1.09.49-1.09,1.08s.5,1.08,1.09,1.08,1.09-.48,1.09-1.08-.5-1.08-1.09-1.08"/>
    <path class="st0" d="M187,105.88c-.6,0-1.09.48-1.09,1.08s.5,1.09,1.09,1.09,1.09-.49,1.09-1.09-.5-1.08-1.09-1.08"/>
    <path class="st0" d="M187,110.37c-.6,0-1.09.48-1.09,1.07s.5,1.09,1.09,1.09,1.08-.49,1.08-1.09-.49-1.07-1.08-1.07"/>
    <path class="st0" d="M187,101.39c-.6,0-1.09.49-1.09,1.09s.5,1.09,1.09,1.09,1.09-.5,1.09-1.09-.5-1.09-1.09-1.09"/>
    <path class="st0" d="M128.69,101.39c-.6,0-1.09.49-1.09,1.09s.49,1.09,1.09,1.09,1.08-.5,1.08-1.09-.49-1.09-1.08-1.09"/>
    <path class="st0" d="M125.27,89.02c0-.59-.48-1.08-1.07-1.08s-1.09.48-1.09,1.08.49,1.09,1.09,1.09,1.07-.48,1.07-1.09"/>
    <path class="st0" d="M124.21,103.56c.59,0,1.07-.5,1.07-1.09s-.48-1.08-1.07-1.08-1.1.49-1.1,1.08.5,1.09,1.1,1.09"/>
    <path class="st0" d="M124.21,108.04c.59,0,1.07-.49,1.07-1.09s-.48-1.08-1.07-1.08-1.1.48-1.1,1.08.5,1.09,1.1,1.09"/>
    <path class="st0" d="M120.79,111.44c0-.59-.48-1.07-1.09-1.07s-1.08.48-1.08,1.07.49,1.09,1.08,1.09,1.09-.49,1.09-1.09"/>
    <path class="st0" d="M124.21,112.54c.59,0,1.07-.49,1.07-1.09s-.48-1.07-1.07-1.07-1.1.48-1.1,1.07.5,1.09,1.1,1.09"/>
    <path class="st0" d="M115.23,47.56c-.6,0-1.09.49-1.09,1.08s.49,1.08,1.09,1.08,1.08-.48,1.08-1.08-.5-1.08-1.08-1.08"/>
    <path class="st0" d="M119.71,90.1c.61,0,1.08-.48,1.08-1.08s-.48-1.07-1.08-1.07-1.09.48-1.09,1.07.48,1.08,1.09,1.08"/>
    <path class="st0" d="M119.71,85.62c.61,0,1.08-.49,1.08-1.09s-.48-1.08-1.08-1.08-1.09.49-1.09,1.08.48,1.09,1.09,1.09"/>
    <path class="st0" d="M115.23,87.94c-.6,0-1.09.48-1.09,1.08s.49,1.08,1.09,1.08,1.08-.48,1.08-1.08-.49-1.08-1.08-1.08"/>
    <path class="st0" d="M115.23,65.51c-.6,0-1.09.48-1.09,1.08s.49,1.08,1.09,1.08,1.08-.49,1.08-1.08-.49-1.08-1.08-1.08"/>
    <path class="st0" d="M115.23,69.99c-.6,0-1.09.48-1.09,1.09s.49,1.08,1.09,1.08,1.08-.49,1.08-1.08-.49-1.09-1.08-1.09"/>
    <path class="st0" d="M115.23,74.48c-.6,0-1.09.49-1.09,1.08s.49,1.08,1.09,1.08,1.08-.49,1.08-1.08-.49-1.08-1.08-1.08"/>
    <path class="st0" d="M115.23,78.96c-.6,0-1.09.49-1.09,1.09s.49,1.09,1.09,1.09,1.08-.49,1.08-1.09-.49-1.09-1.08-1.09"/>
    <path class="st0" d="M115.23,61.02c-.6,0-1.09.49-1.09,1.07s.49,1.1,1.09,1.1,1.08-.49,1.08-1.1-.5-1.07-1.08-1.07"/>
    <path class="st0" d="M119.71,99.07c.61,0,1.08-.48,1.08-1.08s-.48-1.09-1.08-1.09-1.09.49-1.09,1.09.48,1.08,1.09,1.08"/>
    <path class="st0" d="M115.23,56.53c-.6,0-1.09.49-1.09,1.09s.49,1.08,1.09,1.08,1.08-.48,1.08-1.08-.5-1.09-1.08-1.09"/>
    <path class="st0" d="M115.23,52.05c-.6,0-1.09.5-1.09,1.09s.49,1.09,1.09,1.09,1.08-.49,1.08-1.09-.5-1.09-1.08-1.09"/>
    <path class="st0" d="M115.23,83.46c-.6,0-1.09.49-1.09,1.08s.49,1.09,1.09,1.09,1.08-.49,1.08-1.09-.49-1.08-1.08-1.08"/>
    <path class="st0" d="M128.69,110.37c-.6,0-1.09.48-1.09,1.07s.49,1.09,1.09,1.09,1.08-.49,1.08-1.09-.49-1.07-1.08-1.07"/>
    <path class="st0" d="M119.71,108.04c.61,0,1.08-.49,1.08-1.09s-.48-1.08-1.08-1.08-1.09.48-1.09,1.08.49,1.09,1.09,1.09"/>
    <path class="st0" d="M128.69,105.88c-.6,0-1.09.48-1.09,1.08s.49,1.09,1.09,1.09,1.08-.49,1.08-1.09-.49-1.08-1.08-1.08"/>
    <path class="st0" d="M115.23,92.42c-.6,0-1.09.49-1.09,1.08s.49,1.08,1.09,1.08,1.08-.48,1.08-1.08-.49-1.08-1.08-1.08"/>
    <path class="st0" d="M128.69,99.07c.59,0,1.08-.48,1.08-1.08s-.48-1.09-1.08-1.09-1.09.49-1.09,1.09.49,1.08,1.09,1.08"/>
    <path class="st0" d="M119.71,103.56c.61,0,1.08-.5,1.08-1.09s-.48-1.08-1.08-1.08-1.09.49-1.09,1.08.49,1.09,1.09,1.09"/>
    <path class="st0" d="M135.44,103.68s.34-.37,1.21-1.01c.1.5.48.9,1.01.9.11,0,.18-.09.29-.12-.13.21-.27.43-.35.61-.2.52-.42,1.28-.41,2.01-.35.18-.62.47-.62.88,0,.6.49,1.09,1.09,1.09.17,0,.31-.11.45-.19.21.12.45.2.75.26,0,0-.51-2.27,1-3.91,0,0,.63-.69,1.31-1.41.13.4.43.69.87.73-.45,1.12-1.21,2.45-2.48,3.5,0,0,.87.46,2.02.9,0,0-.4,1.32.16,2.6-.39.16-.71.47-.71.92,0,.61.49,1.09,1.08,1.09.4,0,.69-.25.87-.58.11.07.19.15.31.22v-30.05s.01,25.8.01,25.8h40.14V41.97h-40.14v25.14l-.21-.26c.03-.09.11-.15.11-.25,0-.6-.49-1.08-1.08-1.08-.04,0-.06.04-.09.05-.62-.61-1.5-1.43-1.5-1.43.56-1.62.29-2.27.29-2.27-1.21,1.69-1.99.43-1.99.43,1.07-1.74.04-2.18.04-2.18,0,0,.02,1.2-.92,1.03-.11-.04-.19-.13-.31-.13-.04,0-.04.03-.08.03-1.28-.62-1.33-1.49-3.15-1.84l.61-1.81v-.09c0-.87-.91-1.57-2.14-1.67.18-.11.31-.32.31-.54,0-.34-.29-.62-.63-.62s-.62.28-.62.62c0,.23.13.43.3.54-1.21.1-2.11.8-2.11,1.67v.09l.63,1.84h.06c-1.62.37-1.83,1.18-1.83,1.18-1.09,0-2.43.87-1.57,2.77-.46-.21-.97-.58-1.53-1.16,0,0-.06,2.57,2.75,2.57.99,0,2.22-.57,2.83-.57,0,0,.09.22-.34.31-.43.08-1.5.17-1.82.57,0,0,1.03,1.25,3.29.25,0,0,2.14,0,3.16,1.71.55.95-.66,2.1-.66,2.1,0,0,1.14,0,1.71-.53.56-.51-.16.9-1.62,1.58-.32.15.69.41,1.67.4-.15.19-.28.41-.28.66,0,.1.09.17.11.28-.52-.03-1.03-.17-1.03-.17,0,0-.82.04-1.39.27,0,0-.09.04-.2.09.08-.15.2-.29.2-.46,0-.6-.49-1.09-1.1-1.09s-1.07.48-1.07,1.09c0,.5.37.85.82.98-.08.04-.18.08-.2.09-.14.04-1.45.83-1.1-1l.05-1.05c0-.43-.3-.7-.3-.7,0,0-1.56-1.07-2.06-1.97.27-.2.47-.48.47-.83,0-.6-.49-1.08-1.08-1.08s-1.09.48-1.09,1.08c0,.17.12.3.19.45-1.41-1.12-2.3-2.72-2.65-4.61.04-.12.13-.2.13-.33,0-.3-.13-.57-.33-.76-.07-.84-.05-1.71.09-2.6,0,0-.13-.35-.43-.08-.27.23-3.43,2.61-1.22,7.32-.1.14-.16.29-.2.47-.91-1.13-2.17-3.26-2.38-6.56,0,0-.3.49-.32,1.46-.2-.2-.47-.32-.77-.32-.6,0-1.08.49-1.08,1.07,0,.45.3.76.68.93-.31.57-.71,1.67-.51,3.14-.07.14-.18.26-.18.43,0,.38.23.66.52.85.46,1.24,1.35,2.63,3.13,4.11,0,0-.78-.4-1.72-1.08-.11-.15-.25-.23-.42-.31-.8-.61-1.64-1.38-2.24-2.27,0,0,.22,1.02,1.33,2.3-.34.18-.61.47-.61.89,0,.18.11.31.19.46-.36-.2-.7-.34-1.08-.59,0,0-.21,1.89,2.34,3.69-.13-.06-.23-.15-.38-.15-.32,0-.6.15-.79.37-.35-.17-.67-.31-1.07-.55,0,0-.02.47.87,1.03-.02.08-.09.14-.09.22,0,.25.12.46.27.65-.37-.11-.69-.18-1.12-.36,0,0,.45,3.15,5.66,3.42-.08.08-.08.21-.14.31-.58.12-1.41.22-2.62.21-.11-.46-.47-.84-.98-.84-.45,0-.76.32-.93.71-.18-.02-.3-.01-.49-.04,0,0,.13.11.4.25-.01.06-.07.1-.07.17,0,.27.12.51.29.7-.13-.02-.22-.02-.35-.04,0,0,2.49,4.28,8.15,1.68,0,0-.61.69-1.83,1.35-.18-.16-.42-.28-.68-.28-.56,0-.98.44-1.05.97-.68.19-1.4.37-2.3.42,0,0,.97.29,2.42.08.16.38.46.67.89.69-.5.32-1.01.6-1.48.79,0,0,2.72,1.51,6.43-.96.14-.06.27-.12.37-.24.74-.54,1.5-1.18,2.29-2.08,0,0-1.28,2.13-2.2,3.1,1.3-.04,3.13-3.48,3.36-3.94,0,.03-.17.68-.36,1.43-.28.19-.49.47-.49.83,0,.15.1.25.15.38-.1.35-.2.66-.27.82,0,0,.36.16,1.01-.19.07.01.11.08.18.08.61,0,1.1-.49,1.1-1.09,0-.02-.03-.03-.03-.06.57-.64,1.23-1.55,1.99-2.96,0,0-.07.79-.33,1.49-.26.7.33.11.33.11,0,0,.5-.2.95-2.19.08.05.16.08.25.1l.07.63-.31.72.83-.31c.82-.25.07.56.07.56,0,0-1.57.16-3.95,3.39,0,0-.04.71-2.21,1.28,0,0-.56.03.04.48l.49.44c-.21.2-.37.47-.37.79,0,.49.35.82.78.97v.11s-2.31,2.46-2.31,2.46c-1.08,1.16-1.16-.45-1.16-.45l-.11-1.52c-.04-.23-.12-.44-.21-.64.38-.17.68-.48.68-.92,0-.6-.48-1.07-1.08-1.07-.42,0-.71.27-.89.61-1.14-.61-2.52-.41-2.73,1.16,0,0,.82-.45,1.13-.08.3.38.04.45.04.45,0,0,.6.49.85.78.27.3.15,1.6.15,1.6,0,0-.04.41.37.85,0,0-1.69-1.22-2.76-1.41-3.76-.66-3.94,3.65-2.45,3.48,0,0-.38-.28-.07-.95.16-.34.71.18.71.18l2.61.12c1.05.03.88.21.49.55-.55.48-1.28.97-1.39,1.83-.16-.1-.32-.22-.54-.22-.6,0-1.09.49-1.09,1.08s.49,1.08,1.09,1.08c.36,0,.64-.22.83-.5.03.05.01.08.04.12,0,0-.26,1.1,1.19,1.21,1.46.1,1.28-.62,1.28-.62,0,0-1.52.48-1.3-.55.11-.52.74-.48.74-.48,0,0,.89-1.9,2.17-2.48,1.25-.6,2.19.44,2.19.44,0,0,.01.93.97,1.25-.11.16-.22.33-.22.55,0,.15.1.25.15.38-.1.07-.21.15-.39.18,0,0,.22.11.51.11.2.24.47.41.8.41.61,0,1.1-.48,1.1-1.08,0-.29-.13-.56-.32-.76.24-.27.45-.62.41-.99-.07-.78-1.14-1.79-1.82-1.9v-.02c.19.14.39.26.63.26.61,0,1.1-.48,1.1-1.08,0-.26-.13-.48-.28-.67l1.77-1.85s.05,1.27,1.1,1.88c-.14.19-.27.39-.27.64,0,.05.04.08.06.13-.22-.12-.43-.2-.67-.4,0,0-.37,4.9,4.59,1.71,0,0-.01,1.1-2.91,1.89-.26.08-.51.22-.73.4t-.02.01c-1.25.97-1.89,3.1-1.89,3.1,0,0,1.27-.97,2.19-1.46.15.09.29.2.48.2.48,0,.82-.36.96-.81.97-.37,2.15-.82,2.45-1.15,0,0-.55,1.58-4.14,2.84-1.35.47-2.26,1.28-2.84,2.14-.16-.4-.48-.71-.93-.71-.59,0-1.07.49-1.07,1.08s.49,1.09,1.07,1.09c.14,0,.24-.1.36-.15-.33,1.52.49,2.87,2.44,2.61,0,0-1.04-1.39-.52-2.35M167.87,89.73v-31.03h13.1v4.65h-3.05v-3.41h-2.53v3.41h-3.4v2.54h3.4v3.39h2.53v-3.39h3.05v4.62h-8.96v19.23l7.24,7.24-9.31,9.31-9.31-9.31,7.24-7.24ZM127.44,63.21s.21-.19.49-.34c.19.19.47.31.76.31.27,0,.48-.13.67-.28.14.07.28.08.43.21,0,0-.91.78-2.35.09M132.06,58.18h-.52c-.13-.35-.25-.75-.31-.9.03-.2.34-.43.82-.53v1.43ZM119.76,63.17c.4-.03.69-.28.85-.62.27,1.34,1.03,3.19,2.94,5.68,0,0-2.71-1.48-3.8-5.06M120.62,71.48c.71.54,1.58,1.08,2.7,1.58,0,0-1.43-.06-3.47-.96.37-.06.63-.29.78-.62M120.54,74.96c.49.3,1.04.59,1.71.87,0,0-.56.01-1.48-.23,0,0,.02-.02.02-.03,0-.23-.13-.42-.25-.6M119.96,76.54c.27-.07.47-.21.61-.44.58.17,1.23.33,2.09.48,0,0-.91.34-2.71-.04M120.3,80.89c.18-.13.27-.29.35-.49.69.06,1.53.01,2.53-.21.02.12.09.22.14.32-.65.24-1.62.43-3.02.38M128.4,67.55h-.02s-.02-.02-.02-.02c0,0,.02.01.04.02M125.1,84.98c.06-.15.17-.27.17-.44,0-.06-.05-.1-.06-.15.79-.33,1.64-.83,2.52-1.59,0,0-1.21,1.14-2.63,2.18M142.45,101.52c.07-.07.17-.18.22-.22,0,0-.02.12-.04.29-.06-.03-.12-.05-.18-.07M138.55,93.94c.07-.14.18-.27.18-.45,0-.59-.47-1.08-1.06-1.08-.17,0-.3.11-.44.18.09-.34.15-.84,0-1.42l1.43.74s-.25-1.28-.18-2.26c.14-.18.26-.39.26-.65,0-.08-.06-.13-.08-.2.35-.87,1-1.85,1-1.85,0,0,.6,2.33-.22,4.69,0,0,.3.33,1.56-.59,0,0-.81,2.37-2.44,2.88M138.69,102.36c-.04-.31-.2-.55-.45-.73.59-.31,1.59-.84,1.86-.93,0,0-.73.79-1.41,1.66"/>
    <path class="st0" d="M119.98,120.44v6.71h2.76c.58,0,1.14-.04,1.67-.26,1.34-.53,1.81-1.74,1.81-3.12,0-2.23-1.38-3.33-3.54-3.33h-2.7ZM123.43,121.86c.75.23,1.1.93,1.1,1.84,0,.75-.14,1.4-.6,1.77-.4.32-.94.35-1.54.35h-.76v-4.07h1.16c.23,0,.46.04.64.11"/>
    <path class="st0" d="M51.57,142.54h1.29c0,.22,0,.43,0,.65-.04.68-.65.81-1.21.81-1.33,0-1.85-1.03-1.85-2.23,0-1.1.57-2.24,1.82-2.24.63,0,1.2.29,1.61.79l1.05-.95c-.65-.75-1.58-1.11-2.57-1.11-2.09,0-3.63,1.38-3.63,3.5,0,2.25,1.43,3.49,3.63,3.49.83,0,2.01-.24,2.48-1,.25-.38.27-.78.27-1.25v-1.69h-2.89v1.25Z"/>
  </g>
  <polygon class="st0" points="139.69 124.35 142.66 124.37 142.66 123.04 139.69 123.04 139.69 121.81 143.32 121.82 143.32 120.46 138.04 120.46 138.04 127.15 143.35 127.15 143.35 125.8 139.69 125.81 139.69 124.35"/>
  <rect class="st0" x="32.55" y="120.45" width="1.57" height="6.68"/>
  <polygon class="st0" points="89.84 125.8 86.18 125.81 86.18 124.35 89.14 124.37 89.14 123.04 86.18 123.04 86.18 121.81 89.8 121.82 89.8 120.46 84.52 120.46 84.52 127.15 89.84 127.15 89.84 125.8"/>
  <polygon class="st0" points="71.67 125.8 68.35 125.82 68.37 120.44 66.74 120.44 66.74 127.15 71.67 127.15 71.67 125.8"/>
  <polygon class="st0" points="53.75 125.8 50.42 125.82 50.44 120.44 48.8 120.44 48.8 127.15 53.75 127.15 53.75 125.8"/>
  <polygon class="st0" points="124.8 138.4 123.03 143.37 121.33 138.4 119.56 138.4 122.14 145.08 123.95 145.08 126.57 138.4 124.8 138.4"/>
  <polygon class="st0" points="66.56 138.4 66.56 145.08 71.87 145.08 71.87 143.73 68.22 143.74 68.22 142.29 71.18 142.31 71.18 140.97 68.22 140.97 68.22 139.74 71.84 139.75 71.84 138.4 66.56 138.4"/>
  <polygon class="st0" points="138.04 138.4 138.04 145.08 143.35 145.08 143.35 143.73 139.69 143.74 139.69 142.29 142.66 142.31 142.66 140.97 139.69 140.97 139.69 139.74 143.32 139.75 143.32 138.4 138.04 138.4"/>
  <polygon class="st0" points="88.78 138.4 88.79 142.86 85.78 138.4 83.96 138.4 83.96 145.09 85.6 145.09 85.57 140.63 88.61 145.09 90.4 145.09 90.4 138.4 88.78 138.4"/>
  <polygon class="st0" points="103.5 136.56 105.97 137.78 106.77 136.95 104.57 135.46 103.5 136.56"/>
  <polygon class="st0" points="102.58 138.4 102.58 145.08 107.9 145.08 107.9 143.73 104.24 143.74 104.24 142.29 107.19 142.31 107.19 140.97 104.24 140.97 104.24 139.74 107.85 139.75 107.85 138.4 102.58 138.4"/>
  <polygon class="st0" points="17.13 120.45 15.35 125.43 13.65 120.45 11.89 120.45 14.48 127.13 16.28 127.13 18.89 120.45 17.13 120.45"/>
  <polygon class="st0" points="171.21 101.64 171.21 98.23 174.6 98.23 174.6 95.71 171.21 95.71 171.21 92.31 168.68 92.31 168.68 95.71 165.27 95.71 165.27 98.23 168.68 98.23 168.68 101.64 171.21 101.64"/>
  <g>
    <path class="st0" d="M130.93,38.87c.81,0,1.46-.65,1.46-1.47s-.65-1.46-1.46-1.46-1.47.66-1.47,1.46.66,1.47,1.47,1.47"/>
    <path class="st0" d="M137.43,38.87c.81,0,1.48-.65,1.48-1.47s-.66-1.46-1.48-1.46-1.47.66-1.47,1.46.65,1.47,1.47,1.47"/>
    <path class="st0" d="M137.43,45.63c.81,0,1.48-.65,1.48-1.47s-.66-1.46-1.48-1.46-1.47.65-1.47,1.46.65,1.47,1.47,1.47"/>
    <path class="st0" d="M137.43,32.2c.81,0,1.48-.66,1.48-1.48s-.66-1.47-1.48-1.47-1.47.66-1.47,1.47.65,1.48,1.47,1.48"/>
    <path class="st0" d="M200.31,94.15c-.81,0-1.48.67-1.48,1.48s.66,1.46,1.48,1.46,1.47-.65,1.47-1.46-.66-1.48-1.47-1.48"/>
    <path class="st0" d="M200.31,87.48c-.81,0-1.48.67-1.48,1.47s.66,1.47,1.48,1.47,1.47-.64,1.47-1.47-.66-1.47-1.47-1.47"/>
    <path class="st0" d="M200.31,73.96c-.81,0-1.48.65-1.48,1.47s.66,1.47,1.48,1.47,1.47-.66,1.47-1.47-.66-1.47-1.47-1.47"/>
    <path class="st0" d="M200.31,80.73c-.81,0-1.48.65-1.48,1.45s.66,1.48,1.48,1.48,1.47-.66,1.47-1.48-.66-1.45-1.47-1.45"/>
    <path class="st0" d="M200.31,67.28c-.81,0-1.48.66-1.48,1.46s.66,1.48,1.48,1.48,1.47-.66,1.47-1.48-.66-1.46-1.47-1.46"/>
    <path class="st0" d="M200.31,53.76c-.81,0-1.48.65-1.48,1.46s.66,1.47,1.48,1.47,1.47-.66,1.47-1.47-.66-1.46-1.47-1.46"/>
    <path class="st0" d="M200.31,60.52c-.81,0-1.48.66-1.48,1.47s.66,1.47,1.48,1.47,1.47-.67,1.47-1.47-.66-1.47-1.47-1.47"/>
    <path class="st0" d="M200.31,47.08c-.81,0-1.48.65-1.48,1.47s.66,1.47,1.48,1.47,1.47-.66,1.47-1.47-.66-1.47-1.47-1.47"/>
    <path class="st0" d="M193.55,67.28c-.81,0-1.46.66-1.46,1.46s.65,1.48,1.46,1.48,1.47-.66,1.47-1.48-.66-1.46-1.47-1.46"/>
    <path class="st0" d="M193.55,53.76c-.81,0-1.46.65-1.46,1.46s.65,1.47,1.46,1.47,1.47-.66,1.47-1.47-.66-1.46-1.47-1.46"/>
    <path class="st0" d="M193.55,60.52c-.81,0-1.46.66-1.46,1.47s.65,1.47,1.46,1.47,1.47-.67,1.47-1.47-.66-1.47-1.47-1.47"/>
    <path class="st0" d="M193.55,47.08c-.81,0-1.46.65-1.46,1.47s.65,1.47,1.46,1.47,1.47-.66,1.47-1.47-.66-1.47-1.47-1.47"/>
    <path class="st0" d="M207.07,53.76c-.83,0-1.48.65-1.48,1.46s.65,1.47,1.48,1.47,1.46-.66,1.46-1.47-.66-1.46-1.46-1.46"/>
    <path class="st0" d="M207.07,60.52c-.83,0-1.48.66-1.48,1.47s.65,1.47,1.48,1.47,1.46-.67,1.46-1.47-.66-1.47-1.46-1.47"/>
    <path class="st0" d="M207.07,50.02c.8,0,1.46-.66,1.46-1.47s-.66-1.47-1.46-1.47-1.48.65-1.48,1.47.65,1.47,1.48,1.47"/>
  </g>
</svg>