<?xml version="1.0" encoding="UTF-8"?>
<svg id="Calque_1" xmlns="http://www.w3.org/2000/svg" version="1.1" viewBox="0 0 329.96 31.87">
  <!-- Generator: Adobe Illustrator 30.0.0, SVG Export Plug-In . SVG Version: 2.1.1 Build 123)  -->
  <defs>
    <style>
      .st0 {
        fill: #fff;
      }
    </style>
  </defs>
  <polygon class="st0" points="18.49 28.51 8.58 11.39 8.51 11.39 8.51 28.51 4.27 28.51 4.27 5.1 9.85 5.1 18.66 20.75 18.72 20.75 18.72 5.1 22.93 5.1 22.93 28.51 18.49 28.51"/>
  <polygon class="st0" points="61.35 28.51 61.35 8.88 55.02 8.88 55.02 5.1 72.21 5.1 72.21 8.88 65.85 8.88 65.85 28.51 61.35 28.51"/>
  <path class="st0" d="M46.04,16.81c0-5.35-1.96-8.51-5.51-8.51s-5.48,3.16-5.48,8.51,1.89,8.45,5.48,8.45,5.51-3.13,5.51-8.45M30.55,16.81c0-6.23,2.87-12.1,9.98-12.1s9.98,5.87,9.98,12.1c0,7.3-3.52,12.1-9.98,12.1s-9.98-4.79-9.98-12.1"/>
  <polygon class="st0" points="105.39 28.51 105.39 5.1 120.53 5.1 120.53 8.88 109.89 8.88 109.89 14.62 117.49 14.62 117.49 18.27 109.89 18.27 109.89 24.73 120.88 24.73 120.88 28.51 105.39 28.51"/>
  <path class="st0" d="M82.45,8.88h3.75c1.96,0,4.31.36,4.31,3.26,0,0,0,1.04-1.65,2.1l-6.41,4.14v-9.5ZM97.08,28.51l-5.45-11.33c2.32-1.54,4.41-2.74,4.41-5.33,0-4.47-2.9-6.75-9.1-6.75h-7.99v23.41h4.5v-6.37l4.47-2.78,4.18,9.15h4.99Z"/>
  <polygon class="st0" points="165.36 28.51 165.36 18.44 155.84 18.44 155.84 28.51 151.31 28.51 151.31 5.1 155.84 5.1 155.84 14.43 165.36 14.43 165.36 5.1 169.86 5.1 169.86 28.51 165.36 28.51"/>
  <rect class="st0" x="180.29" y="5.1" width="4.5" height="23.41"/>
  <rect class="st0" x="294.65" y="5.1" width="4.5" height="23.41"/>
  <g>
    <path class="st0" d="M206.98,12.27c-.85-2.15-2.61-3.98-4.79-3.98-2.02,0-3.52,1.01-3.52,2.8,0,4.76,12.26,2.09,12.26,10.7,0,4.66-3.52,7.11-8.54,7.11-4.53,0-7.34-1.79-8.77-6.23l3.65-2.34c.65,2.51,2.61,4.92,5.38,4.92,2.35,0,4.04-1.08,4.04-3.13,0-5.15-12.36-2.28-12.36-10.99,0-3.91,3.26-6.42,7.79-6.42,4.24,0,6.91,1.7,8.22,5.38l-3.36,2.19Z"/>
    <path class="st0" d="M250.27,25.25c-3.59,0-5.48-3.13-5.48-8.45s1.92-8.51,5.48-8.51,5.51,3.16,5.51,8.51-1.92,8.45-5.51,8.45M252.38,4.9l3.87-3.66h-4.43l-2.65,3.52c-6.3.58-8.87,6.15-8.87,12.05,0,7.31,3.55,12.1,9.98,12.1s9.98-4.79,9.98-12.1c0-5.57-2.27-10.86-7.86-11.91"/>
  </g>
  <polygon class="st0" points="223.49 28.51 223.49 8.88 217.17 8.88 217.17 5.1 234.35 5.1 234.35 8.88 227.99 8.88 227.99 28.51 223.49 28.51"/>
  <g>
    <path class="st0" d="M273.09,8.88h3.75c1.96,0,4.3.36,4.3,3.26,0,0,0,1.04-1.65,2.1l-6.41,4.14v-9.5ZM286.72,28.51l-5.45-11.33c2.32-1.54,4.41-2.74,4.41-5.33,0-4.47-2.9-6.75-9.1-6.75h-7.99v23.41h4.5v-6.37l4.46-2.78,4.18,9.15h4.99Z"/>
    <path class="st0" d="M312.87,20.96l3.36-12.14h.07l3.36,12.14h-6.78ZM312.14,5.1v.17s.83.91.51,1.99l-6.39,21.26h4.53l1.05-3.81h8.85l1.05,3.81h4.73l-7.08-23.41h-7.26Z"/>
  </g>
</svg>