<?xml version="1.0" encoding="UTF-8"?>
<svg id="Calque_1" xmlns="http://www.w3.org/2000/svg" version="1.1" viewBox="0 0 221.15 205.36">
  <!-- Generator: Adobe Illustrator 30.0.0, SVG Export Plug-In . SVG Version: 2.1.1 Build 123)  -->
  <defs>
    <style>
      .st0 {
        fill: #fff;
      }
    </style>
  </defs>
  <polygon class="st0" points="93.43 55.27 93.42 73.13 108.89 64.21 93.43 55.27"/>
  <polygon class="st0" points="112.59 55.27 112.57 73.13 128.05 64.21 112.59 55.27"/>
  <polygon class="st0" points="112.59 36.18 112.57 54.04 128.05 45.12 112.59 36.18"/>
  <polygon class="st0" points="150.9 74.95 150.88 92.81 166.36 83.89 150.9 74.95"/>
  <polygon class="st0" points="131.74 55.27 131.73 73.13 147.2 64.21 131.74 55.27"/>
  <polygon class="st0" points="112.59 94.63 112.57 112.49 128.05 103.58 112.59 94.63"/>
  <polygon class="st0" points="131.74 74.95 131.73 92.81 147.2 83.89 131.74 74.95"/>
  <polygon class="st0" points="131.74 94.63 131.73 112.49 147.2 103.58 131.74 94.63"/>
  <path class="st0" d="M49.91,114.77h1.08c1.38,0,2.17-.73,2.17-1.99s-.79-1.88-2.17-1.88h-2.3v5.42h1.22v-1.55ZM49.91,111.92h1.01c.68,0,1.07.3,1.07.91s-.39.93-1.07.93h-1.01v-1.83Z"/>
  <path class="st0" d="M57.49,114.53c.66-.31,1.01-.91,1.01-1.75,0-1.2-.8-1.88-2.22-1.88h-2.35v5.42h1.22v-1.55h1.25l.86,1.55h1.39l-1.15-1.79ZM56.29,113.75h-1.13v-1.83h1.13c.67,0,1.06.3,1.06.91s-.39.93-1.06.93Z"/>
  <path class="st0" d="M64.97,113.61c0-1.57-1.25-2.75-2.91-2.75s-2.91,1.17-2.91,2.75,1.25,2.76,2.91,2.76,2.91-1.2,2.91-2.76ZM62.08,115.31c-.91,0-1.67-.74-1.67-1.7s.76-1.68,1.67-1.68,1.64.73,1.64,1.68-.74,1.7-1.64,1.7Z"/>
  <path class="st0" d="M68.21,111.92c.53,0,1.08.23,1.49.6l.69-.87c-.55-.48-1.37-.79-2.18-.79-1.69,0-2.96,1.18-2.96,2.75s1.25,2.76,2.89,2.76c.75,0,1.63-.28,2.2-.7v-2.08h-1.06v1.42c-.35.18-.74.29-1.06.29-.96,0-1.71-.74-1.71-1.69s.74-1.69,1.7-1.69Z"/>
  <path class="st0" d="M72.64,114.77h1.24l.86,1.55h1.39l-1.16-1.79c.66-.31,1.02-.91,1.02-1.75,0-1.2-.81-1.88-2.22-1.88h-2.35v5.42h1.22v-1.55ZM72.64,111.92h1.13c.67,0,1.06.3,1.06.91s-.39.93-1.06.93h-1.13v-1.83Z"/>
  <path class="st0" d="M76.4,116.32h1.26l.43-1.05h2.51l.42,1.05h1.31l-2.31-5.42h-1.26l-2.35,5.42ZM80.2,114.28h-1.71l.86-2.11.85,2.11Z"/>
  <polygon class="st0" points="88.78 116.32 88.78 110.9 87.42 110.9 85.84 114.21 84.27 110.9 82.9 110.9 82.9 116.32 84 116.32 84 112.67 85.44 115.77 86.24 115.77 87.68 112.67 87.68 116.32 88.78 116.32"/>
  <polygon class="st0" points="92.93 114.21 91.35 110.9 89.98 110.9 89.98 116.32 91.09 116.32 91.09 112.67 92.53 115.77 93.32 115.77 94.77 112.67 94.77 116.32 95.86 116.32 95.86 110.9 94.5 110.9 92.93 114.21"/>
  <polygon class="st0" points="101.19 111.92 101.19 110.9 97.07 110.9 97.07 116.32 101.28 116.32 101.28 115.3 98.29 115.3 98.29 114.11 100.91 114.11 100.91 113.09 98.29 113.09 98.29 111.92 101.19 111.92"/>
  <path class="st0" d="M52.47,141.08c-.37.38-.88.63-1.29.63-.74,0-1.29-.6-1.29-1.4s.56-1.39,1.29-1.39c.45,0,.95.28,1.29.72l.93-1.1c-.55-.59-1.42-.96-2.25-.96-1.68,0-2.92,1.17-2.92,2.75s1.22,2.79,2.86,2.79c.82,0,1.71-.41,2.3-1.04l-.93-.99Z"/>
  <path class="st0" d="M55.61,137.62l-2.31,5.42h1.65l.33-.86h2.19l.32.86h1.72l-2.23-5.42h-1.66ZM55.73,141l.66-1.77.65,1.77h-1.32Z"/>
  <polygon class="st0" points="63.58 140.65 61.28 137.62 59.91 137.62 59.91 143.04 61.39 143.04 61.39 140.03 63.69 143.04 65.06 143.04 65.06 137.62 63.58 137.62 63.58 140.65"/>
  <polygon class="st0" points="70.33 137.62 65.56 137.62 65.56 138.9 67.13 138.9 67.13 143.04 68.75 143.04 68.75 138.9 70.33 138.9 70.33 137.62"/>
  <path class="st0" d="M73.23,137.57c-1.7,0-2.95,1.16-2.95,2.76s1.25,2.78,2.95,2.78,2.96-1.19,2.96-2.78-1.25-2.76-2.96-2.76ZM73.25,141.77c-.71,0-1.33-.61-1.33-1.43s.61-1.42,1.33-1.42,1.29.59,1.29,1.42-.57,1.43-1.29,1.43Z"/>
  <polygon class="st0" points="80.47 140.65 78.17 137.62 76.79 137.62 76.79 143.04 78.27 143.04 78.27 140.03 80.57 143.04 81.94 143.04 81.94 137.62 80.47 137.62 80.47 140.65"/>
  <path class="st0" d="M86.93,137.62h-2.38v5.42h2.32c1.79,0,2.97-1.09,2.97-2.72s-1.16-2.71-2.92-2.71ZM86.98,141.78h-.81v-2.89h.74c.77,0,1.31.58,1.31,1.45s-.5,1.44-1.23,1.44Z"/>
  <polygon class="st0" points="92.07 140.95 94.63 140.95 94.63 139.71 92.07 139.71 92.07 138.86 94.89 138.86 94.89 137.62 90.46 137.62 90.46 143.04 94.97 143.04 94.97 141.81 92.07 141.81 92.07 140.95"/>
  <path class="st0" d="M100.16,138.91c.47,0,1.01.23,1.38.59l.91-1.11c-.57-.5-1.46-.82-2.29-.82-1.75,0-3.03,1.18-3.03,2.76s1.24,2.78,2.92,2.78c.77,0,1.73-.3,2.32-.7v-2.18h-1.39v1.32c-.29.13-.59.21-.82.21-.79,0-1.39-.6-1.39-1.43s.59-1.43,1.37-1.43Z"/>
  <polygon class="st0" points="104.79 140.95 107.35 140.95 107.35 139.71 104.79 139.71 104.79 138.86 107.61 138.86 107.61 137.62 103.18 137.62 103.18 143.04 107.69 143.04 107.69 141.81 104.79 141.81 104.79 140.95"/>
  <polygon class="st0" points="112.14 140.65 109.85 137.62 108.47 137.62 108.47 143.04 109.95 143.04 109.95 140.03 112.25 143.04 113.61 143.04 113.61 137.62 112.14 137.62 112.14 140.65"/>
  <polygon class="st0" points="116.41 137.22 117.55 137.22 116.72 135.83 115.37 136.28 116.41 137.22"/>
  <polygon class="st0" points="116.14 140.95 118.71 140.95 118.71 139.71 116.14 139.71 116.14 138.86 118.97 138.86 118.97 137.62 114.53 137.62 114.53 143.04 119.05 143.04 119.05 141.81 116.14 141.81 116.14 140.95"/>
  <polygon class="st0" points="122.3 141.37 121.06 137.62 119.35 137.62 121.42 143.04 123.09 143.04 125.19 137.62 123.54 137.62 122.3 141.37"/>
  <polygon class="st0" points="127.23 140.95 129.79 140.95 129.79 139.71 127.23 139.71 127.23 138.86 130.05 138.86 130.05 137.62 125.62 137.62 125.62 143.04 130.13 143.04 130.13 141.81 127.23 141.81 127.23 140.95"/>
  <path class="st0" d="M55.9,95.24h3.63c5.97,0,9.4-3.04,9.4-8.34s-3.43-7.9-9.4-7.9h-10.49v22.23h6.86v-5.99ZM55.9,84.08h3.3c2.05,0,3.24,1.08,3.24,3.01s-1.19,3.08-3.24,3.08h-3.3v-6.09Z"/>
  <rect class="st0" x="72.23" y="79" width="6.86" height="22.23"/>
  <path class="st0" d="M94.53,101.52c3.5,0,7.29-1.68,9.8-4.28l-3.96-4.06c-1.58,1.55-3.73,2.57-5.51,2.57-3.14,0-5.51-2.47-5.51-5.74s2.38-5.71,5.51-5.71c1.91,0,4.06,1.17,5.51,2.95l3.96-4.5c-2.34-2.41-6.07-3.93-9.57-3.93-7.16,0-12.44,4.79-12.44,11.26s5.18,11.44,12.21,11.44Z"/>
  <path class="st0" d="M54.85,122.05l.52-.78c.1-.14.16-.29.16-.48,0-.39-.27-.6-.58-.6-.34,0-.59.26-.59.6,0,.19.08.36.24.48l-.33.78h.58Z"/>
  <path class="st0" d="M51.01,121.38h-2.3v5.42h2.25c1.71,0,2.89-1.11,2.89-2.71s-1.17-2.71-2.85-2.71ZM51.04,125.77h-1.11v-3.36h1.05c.93,0,1.63.69,1.63,1.69s-.67,1.67-1.57,1.67Z"/>
  <rect class="st0" x="56.46" y="121.38" width="1.22" height="5.42"/>
  <polygon class="st0" points="60 121.38 58.89 121.38 58.89 126.8 60.06 126.8 60.06 123.33 62.68 126.8 63.79 126.8 63.79 121.38 62.63 121.38 62.63 124.87 60 121.38"/>
  <polygon class="st0" points="67.33 126.8 67.33 122.42 68.98 122.42 68.98 121.39 64.45 121.39 64.45 122.42 66.1 122.42 66.1 126.8 67.33 126.8"/>
  <polygon class="st0" points="73.02 120.03 71.92 119.62 71.1 120.88 72.04 120.88 73.02 120.03"/>
  <polygon class="st0" points="73.77 122.4 73.77 121.38 69.64 121.38 69.64 126.8 73.85 126.8 73.85 125.79 70.87 125.79 70.87 124.59 73.48 124.59 73.48 123.57 70.87 123.57 70.87 122.4 73.77 122.4"/>
  <path class="st0" d="M77.39,122.41c.53,0,1.09.23,1.49.6l.69-.87c-.55-.48-1.37-.79-2.17-.79-1.69,0-2.96,1.18-2.96,2.75s1.25,2.76,2.89,2.76c.75,0,1.63-.28,2.2-.7v-2.08h-1.06v1.42c-.35.18-.74.29-1.06.29-.96,0-1.71-.74-1.71-1.7s.74-1.69,1.7-1.69Z"/>
  <path class="st0" d="M84.14,125.01c.66-.31,1.02-.91,1.02-1.75,0-1.2-.81-1.88-2.22-1.88h-2.35v5.42h1.22v-1.55h1.25l.86,1.55h1.39l-1.16-1.79ZM82.94,124.23h-1.13v-1.83h1.13c.67,0,1.06.3,1.06.9s-.39.93-1.06.93Z"/>
  <path class="st0" d="M89.18,121.38h-1.26l-2.35,5.42h1.26l.43-1.05h2.51l.42,1.05h1.31l-2.32-5.42ZM87.66,124.77l.86-2.11.85,2.11h-1.71Z"/>
  <polygon class="st0" points="90.97 122.42 92.62 122.42 92.62 126.8 93.84 126.8 93.84 122.42 95.5 122.42 95.5 121.39 90.97 121.39 90.97 122.42"/>
  <rect class="st0" x="96.16" y="121.38" width="1.22" height="5.42"/>
  <path class="st0" d="M101.1,126.86c1.66,0,2.91-1.2,2.91-2.76s-1.25-2.75-2.91-2.75-2.91,1.17-2.91,2.75,1.25,2.76,2.91,2.76ZM101.12,122.41c.91,0,1.64.73,1.64,1.68s-.73,1.7-1.64,1.7-1.67-.74-1.67-1.7.76-1.68,1.67-1.68Z"/>
  <polygon class="st0" points="108.57 124.87 105.94 121.38 104.82 121.38 104.82 126.8 105.99 126.8 105.99 123.33 108.62 126.8 109.73 126.8 109.73 121.38 108.57 121.38 108.57 124.87"/>
  <path class="st0" d="M115.25,126.86c.79,0,1.61-.38,2.19-.97l-.72-.78c-.39.39-.92.63-1.41.63-.93,0-1.65-.73-1.65-1.67s.72-1.66,1.65-1.66c.5,0,1.04.28,1.41.7l.71-.87c-.53-.55-1.36-.9-2.14-.9-1.64,0-2.89,1.18-2.89,2.74s1.22,2.77,2.84,2.77Z"/>
  <path class="st0" d="M122.11,126.8h1.31l-2.31-5.42h-1.26l-2.35,5.42h1.26l.42-1.05h2.51l.43,1.05ZM119.58,124.77l.86-2.11.85,2.11h-1.71Z"/>
  <polygon class="st0" points="127.74 124.87 125.1 121.38 123.99 121.38 123.99 126.8 125.16 126.8 125.16 123.33 127.78 126.8 128.9 126.8 128.9 121.38 127.74 121.38 127.74 124.87"/>
  <polygon class="st0" points="134.09 121.39 129.56 121.39 129.56 122.42 131.21 122.42 131.21 126.8 132.43 126.8 132.43 122.42 134.09 122.42 134.09 121.39"/>
  <path class="st0" d="M136.97,121.35c-1.66,0-2.91,1.17-2.91,2.75s1.25,2.76,2.91,2.76,2.91-1.2,2.91-2.76-1.25-2.75-2.91-2.75ZM136.99,125.79c-.91,0-1.67-.74-1.67-1.7s.76-1.68,1.67-1.68,1.64.73,1.64,1.68-.74,1.7-1.64,1.7Z"/>
  <polygon class="st0" points="144.44 124.87 141.81 121.38 140.69 121.38 140.69 126.8 141.86 126.8 141.86 123.33 144.49 126.8 145.6 126.8 145.6 121.38 144.44 121.38 144.44 124.87"/>
  <path class="st0" d="M148.53,121.38l-2.35,5.42h1.26l.42-1.05h2.51l.42,1.05h1.31l-2.32-5.42h-1.26ZM148.27,124.77l.86-2.11.85,2.11h-1.71Z"/>
  <polygon class="st0" points="153.9 121.38 152.67 121.38 152.67 126.8 156.22 126.8 156.22 125.73 153.9 125.73 153.9 121.38"/>
</svg>