<svg width="222" height="206" viewBox="0 0 222 206" fill="none" xmlns="http://www.w3.org/2000/svg">
<mask id="mask0_66_51" style="mask-type:luminance" maskUnits="userSpaceOnUse" x="18" y="26" width="177" height="146">
<path d="M194.25 26.8496H18.96V171.93H194.25V26.8496Z" fill="white"/>
</mask>
<g mask="url(#mask0_66_51)">
<path d="M126.24 171.93L51.51 130.62H18.96V68.1496H51.51L126.24 26.8496V74.9196C138.24 77.2696 147.28 87.3496 147.28 99.3996C147.28 111.45 138.23 121.53 126.24 123.87V171.94V171.93ZM29.66 119.93H54.27L115.54 153.8V44.9896L54.27 78.8596H29.66V119.93ZM126.24 85.9496V112.82C132.27 110.82 136.58 105.55 136.58 99.3796C136.58 93.2096 132.26 87.9396 126.24 85.9396V85.9496Z" fill="#FFFF00"/>
</g>
<path d="M154.799 38.7814L9.30762 151.799L16.0557 160.486L161.547 47.4684L154.799 38.7814Z" fill="#FFFF00"/>
</svg>
