<?xml version="1.0" encoding="UTF-8"?>
<svg id="Calque_1" xmlns="http://www.w3.org/2000/svg" version="1.1" viewBox="0 0 221.15 205.36">
  <!-- Generator: Adobe Illustrator 30.0.0, SVG Export Plug-In . SVG Version: 2.1.1 Build 123)  -->
  <defs>
    <style>
      .st0 {
        fill: #fff;
      }
    </style>
  </defs>
  <path class="st0" d="M118.11,66.15h.83c.73,0,1.19,0,1.61.91l1.48,3.24h1.58l-1.83-3.72c-.3-.58-.51-.78-.94-.94v-.03c1.12-.19,1.99-.99,1.99-2.13,0-2.23-1.84-2.53-3.74-2.53h-2.36v9.34h1.38v-4.15ZM118.11,62.14h1.33c1.27,0,1.93.53,1.93,1.38,0,.9-.77,1.46-2.09,1.46h-1.17v-2.84Z"/>
  <polygon class="st0" points="130.73 69.12 126.71 69.12 126.71 66.04 130.37 66.04 130.37 64.87 126.71 64.87 126.71 62.14 130.73 62.14 130.73 60.96 125.32 60.96 125.32 70.3 130.73 70.3 130.73 69.12"/>
  <path class="st0" d="M139.01,63.76c0-2.13-1.65-2.8-3.62-2.8h-2.53v9.34h1.38v-3.73h1.35c1.74,0,3.41-.74,3.41-2.81ZM135.61,65.39h-1.37v-3.25h1.17c.86,0,2.13.43,2.13,1.61s-1.08,1.65-1.93,1.65Z"/>
  <path class="st0" d="M144.38,70.46c2.38,0,3.75-1.41,3.75-4.03v-5.47h-1.38v5.3c0,1.79-.58,3.02-2.36,3.02s-2.36-1.23-2.36-3.02v-5.3h-1.38v5.47c0,2.62,1.36,4.03,3.74,4.03Z"/>
  <path class="st0" d="M156.77,67.81c0-1.31-.92-2.14-2.24-2.25v-.03c1.21-.29,1.99-.93,1.99-2.22,0-1.73-1.38-2.35-3.39-2.35h-2.61v9.34h2.57c1.96,0,3.67-.48,3.67-2.49ZM151.9,62.06h1.45c.8,0,1.78.28,1.78,1.39,0,1.38-1.13,1.5-2.47,1.5h-.76v-2.89ZM151.9,69.2v-3.16h.9c1.19,0,2.5.2,2.5,1.65,0,1.26-1.11,1.51-2.36,1.51h-1.04Z"/>
  <polygon class="st0" points="164.45 69.12 160.42 69.12 160.42 60.96 159.03 60.96 159.03 70.3 164.45 70.3 164.45 69.12"/>
  <rect class="st0" x="165.96" y="60.96" width="1.38" height="9.34"/>
  <path class="st0" d="M173.95,70.46c.28,0,.52-.02.77-.06l1.79,1.62h1.71l-2.23-1.97c1.67-.71,2.6-2.34,2.6-4.43,0-2.77-1.71-4.83-4.64-4.83s-4.64,2.06-4.64,4.83,1.7,4.83,4.64,4.83ZM173.95,61.98c2.13-.01,3.18,1.75,3.18,3.65s-.95,3.65-3.18,3.65-3.18-1.79-3.18-3.65,1.05-3.67,3.18-3.65Z"/>
  <path class="st0" d="M184.31,70.46c2.38,0,3.75-1.41,3.75-4.03v-5.47h-1.38v5.3c0,1.79-.58,3.02-2.36,3.02s-2.36-1.23-2.36-3.02v-5.3h-1.38v5.47c0,2.62,1.37,4.03,3.74,4.03Z"/>
  <polygon class="st0" points="196 69.12 191.98 69.12 191.98 66.05 195.65 66.05 195.65 64.87 191.98 64.87 191.98 62.13 196 62.13 196 60.96 190.6 60.96 190.6 70.3 196 70.3 196 69.12"/>
  <polygon class="st0" points="122.28 77.67 122.28 76.49 116.88 76.49 116.88 85.84 122.28 85.84 122.28 84.66 118.26 84.66 118.26 81.58 121.93 81.58 121.93 80.4 118.26 80.4 118.26 77.67 122.28 77.67"/>
  <polygon class="st0" points="128.49 85.84 128.49 77.67 131.49 77.67 131.49 76.49 124.11 76.49 124.11 77.67 127.11 77.67 127.11 85.84 128.49 85.84"/>
  <path class="st0" d="M144.88,85.66l-.08-1.3c-.48.28-1.41.45-2.1.45-2,0-3.63-1.46-3.63-3.65s1.48-3.65,3.7-3.65c.71,0,1.38.17,1.99.52l.11-1.3c-.69-.29-1.42-.4-2.17-.4-2.95,0-5.1,1.91-5.1,4.79s2.03,4.87,5.09,4.87c.57,0,1.46-.04,2.2-.34Z"/>
  <path class="st0" d="M147.62,85.84l.98-2.36h4.73l.98,2.36h1.51l-4.07-9.35h-1.46l-4.11,9.35h1.45ZM150.96,77.75l1.92,4.63h-3.84l1.92-4.63Z"/>
  <polygon class="st0" points="165.43 85.84 165.43 76.49 164.05 76.49 164.05 84.02 164.02 84.02 159.77 76.49 157.89 76.49 157.89 85.84 159.27 85.84 159.27 78.16 159.3 78.16 163.66 85.84 165.43 85.84"/>
  <polygon class="st0" points="171.87 85.84 171.87 77.67 174.87 77.67 174.87 76.49 167.49 76.49 167.49 77.67 170.49 77.67 170.49 85.84 171.87 85.84"/>
  <path class="st0" d="M185.74,81.16c0-2.77-1.72-4.83-4.65-4.83s-4.64,2.06-4.64,4.83,1.7,4.83,4.64,4.83,4.65-1.99,4.65-4.83ZM177.91,81.16c0-1.9,1.05-3.67,3.18-3.65,2.13-.01,3.18,1.75,3.18,3.65s-.95,3.65-3.18,3.65-3.18-1.79-3.18-3.65Z"/>
  <polygon class="st0" points="195.92 85.84 195.92 76.49 194.54 76.49 194.54 84.01 194.51 84.01 190.26 76.49 188.38 76.49 188.38 85.84 189.76 85.84 189.76 78.15 189.79 78.15 194.15 85.84 195.92 85.84"/>
  <path class="st0" d="M119.57,91.63h-2.84v9.35h2.84c3.18,0,5.14-1.62,5.14-4.75,0-2.88-2.28-4.59-5.14-4.59ZM119.56,99.79h-1.45v-6.98h1.62c1.99,0,3.53,1.28,3.53,3.46,0,2.41-1.31,3.52-3.69,3.52Z"/>
  <polygon class="st0" points="127.83 100.97 133.23 100.97 133.23 99.79 129.21 99.79 129.21 96.72 132.87 96.72 132.87 95.54 129.21 95.54 129.21 92.81 133.23 92.81 133.23 91.63 127.83 91.63 127.83 100.97"/>
  <path class="st0" d="M145.34,96.96h2.03v2.83c-.35.07-.59.16-1.55.16-2,0-3.63-1.46-3.63-3.65s1.48-3.66,3.7-3.66c1.24,0,1.97.22,2.65.65l.11-1.35c-.8-.27-1.42-.47-2.83-.47-2.95,0-5.1,1.91-5.1,4.79s2.03,4.87,5.09,4.87c1.51,0,2.42-.24,2.94-.41v-4.86h-3.41v1.1Z"/>
  <polygon class="st0" points="152.23 100.97 157.64 100.97 157.64 99.79 153.62 99.79 153.62 96.72 157.28 96.72 157.28 95.54 153.62 95.54 153.62 92.81 157.64 92.81 157.64 91.63 152.23 91.63 152.23 100.97"/>
  <polygon class="st0" points="166.97 99.15 166.94 99.15 162.69 91.63 160.8 91.63 160.8 100.97 162.18 100.97 162.18 93.29 162.21 93.29 166.58 100.97 168.35 100.97 168.35 91.63 166.97 91.63 166.97 99.15"/>
  <polygon class="st0" points="171.83 100.97 177.24 100.97 177.24 99.79 173.21 99.79 173.21 96.72 176.88 96.72 176.88 95.54 173.21 95.54 173.21 92.81 177.24 92.81 177.24 91.63 171.83 91.63 171.83 100.97"/>
  <polygon class="st0" points="183.82 99.79 183.79 99.79 180.82 91.63 179.27 91.63 182.9 100.97 184.63 100.97 188.32 91.63 186.87 91.63 183.82 99.79"/>
  <polygon class="st0" points="196.07 92.81 196.07 91.63 190.67 91.63 190.67 100.97 196.07 100.97 196.07 99.79 192.05 99.79 192.05 96.72 195.71 96.72 195.71 95.54 192.05 95.54 192.05 92.81 196.07 92.81"/>
  <path class="st0" d="M36.78,158.95c-1.54,0-2.79,1.26-2.79,2.82s1.25,2.81,2.79,2.81,2.79-1.26,2.79-2.81-1.25-2.82-2.79-2.82ZM36.78,164.03c-1.24,0-2.25-1.01-2.25-2.26s1.01-2.27,2.25-2.27,2.25,1.02,2.25,2.27-1.01,2.26-2.25,2.26Z"/>
  <path class="st0" d="M50.6,159.82s.09-.07.15-.09h1.32v4.62c0,.05-.09.16-.09.16h.7s-.09-.11-.09-.16v-4.62h1.36c.05.02.15.09.15.09v-.61h-3.51v.61Z"/>
  <path class="st0" d="M43.08,159.82s.09-.07.15-.09h1.33v4.62c0,.05-.09.16-.09.16h.7s-.09-.11-.09-.16v-4.62h1.36c.06.02.15.09.15.09v-.61h-3.51v.61Z"/>
  <path class="st0" d="M55.17,159.26s.09.09.09.15v4.93s-.09.17-.09.17h3.16v-.53s0-.09,0-.09c0,0-.11.09-.17.09h-2.28s-.07-.04-.11-.05v-1.79h1.73c.06,0,.16.09.16.09v-.7s-.12.08-.16.08h-1.73v-1.84h2.41s.16.09.16.09v-.61h-3.17Z"/>
  <path class="st0" d="M64.66,159.26s.09.09.09.15v4.93s-.09.17-.09.17h3.17v-.62s-.11.09-.16.09h-2.28s-.08-.04-.11-.05v-1.79h1.73c.05,0,.16.09.16.09v-.7s-.12.08-.16.08h-1.73v-1.84h2.41s.16.09.16.09v-.61h-3.18Z"/>
  <path class="st0" d="M62.74,159.26s.09.11.09.16v3.73l-3.18-4.05v5.24s-.09.16-.09.16h.7s-.08-.11-.08-.16v-3.76l3.18,4.04v-5.21s.09-.16.09-.16h-.7Z"/>
  <path class="st0" d="M31.66,159.13c-.32,0-.74.06-.97.13-.09.03-.17.03-.2.03-.05,0-.14-.03-.14-.03-.05-.01-.17-.07-.17-.07v5.16c0,.05-.09.17-.09.17h.69s-.09-.12-.09-.17v-1.95c.28.17.61.25.96.25.97,0,1.74-.79,1.74-1.76s-.78-1.76-1.74-1.76ZM31.66,162.12c-.37,0-.72-.13-.96-.37v-1.92c.28-.12.65-.16.96-.16.67,0,1.22.55,1.22,1.23s-.54,1.22-1.22,1.22Z"/>
  <path class="st0" d="M41.85,161.25c-.67-.37-1.03-.45-1.03-.94s.44-.68.75-.68.58.04.78.32v-.8s-.09.07-.18.07c-.08,0-.48-.1-.72-.1s-1.23.15-1.23,1.18c0,.75.54,1.08.94,1.27.41.2,1.21.46,1.21,1.34s-.73,1.15-1.19,1.15-.78-.17-.97-.4v.93s.11-.07.21-.07.47.1.72.1c.44,0,1.81-.2,1.81-1.71,0-.84-.42-1.28-1.13-1.67Z"/>
  <path class="st0" d="M71.99,161.57c.22-.14.41-.42.41-.77,0-.97-.63-1.66-1.76-1.66-.32,0-.74.05-.97.13-.09.03-.17.03-.2.03-.06,0-.14-.03-.14-.03-.05-.02-.17-.08-.17-.08v5.16c0,.05-.09.17-.09.17h.7s1.43,0,1.43,0c.77,0,1.55-.64,1.55-1.59,0-.7-.32-1.17-.77-1.35ZM70.98,164.07h-1.29v-4.25c.28-.12.65-.16.95-.16.82,0,1.23.46,1.23,1.13,0,.3-.37.65-.75.65-.34,0-.39.01-.67.01v.48h.81c.83,0,.96.49.96,1s-.47,1.12-1.24,1.12Z"/>
  <path class="st0" d="M76.31,162.13c.49-.21.82-.6.82-1.24,0-.97-.57-1.76-1.74-1.76-.33,0-.75.06-.97.12-.09.03-.17.03-.2.03-.05,0-.14-.03-.14-.03-.05-.01-.16-.07-.16-.07v5.16c0,.05-.09.17-.09.17h.7s-.09-.11-.09-.17v-4.52c.28-.13.65-.16.96-.16.82,0,1.21.55,1.21,1.22,0,.58-.5.92-1.21.92h-.24v.48c1.46,0,1.82,1.49,1.82,2.05v.16h.71s-.15-.24-.15-.3c-.07-.62-.31-1.6-1.22-2.08Z"/>
  <path class="st0" d="M80.55,159.09l-2.25,5.25c-.04.08-.12.16-.12.16h.72s-.08-.09-.06-.16l.52-1.21h2.38l.5,1.21c.02.07-.05.16-.05.16h.72s-.08-.08-.12-.16l-2.24-5.25ZM79.57,162.65l.98-2.28.98,2.28h-1.96Z"/>
  <path class="st0" d="M85.09,161.25c-.68-.37-1.03-.45-1.03-.94s.43-.68.75-.68.58.04.78.32v-.8s-.09.07-.18.07-.48-.1-.72-.1-1.23.15-1.23,1.18c0,.75.54,1.08.94,1.27.41.2,1.22.46,1.22,1.34s-.74,1.15-1.19,1.15-.77-.17-.97-.4v.93s.11-.07.21-.07.47.1.72.1c.44,0,1.82-.2,1.82-1.71,0-.84-.42-1.28-1.13-1.67Z"/>
  <path class="st0" d="M103.4,164.34l-1.56-2.65,1.34-2.28s.14-.16.14-.16h-.76s.08.1.05.16l-1.07,1.82-1.07-1.82c-.03-.06.05-.16.05-.16h-.77s.11.11.14.16l1.34,2.28-1.56,2.65c-.05.08-.14.16-.14.16h.77s-.09-.1-.05-.16l1.29-2.19,1.29,2.19c.04.06-.05.16-.05.16h.76s-.09-.08-.14-.16Z"/>
  <path class="st0" d="M98.19,159.41v3.39c0,.72-.58,1.3-1.28,1.3s-1.29-.58-1.29-1.3v-3.39s.09-.16.09-.16h-.7s.09.12.09.16v3.39c0,1,.81,1.82,1.81,1.82s1.8-.81,1.8-1.82v-3.39s.09-.16.09-.16h-.69s.09.12.09.16Z"/>
  <path class="st0" d="M91.84,163.98v-4.56c0-.05.09-.17.09-.17h-.7s.09.11.09.17v4.92c0,.05-.09.16-.09.16h3.21v-.61s-.11.09-.17.09h-2.43Z"/>
  <path class="st0" d="M54.44,60.71c.03.18.04.24.04.24h.34c-.25-.98-.38-2-.38-3.03,0-3.28,1.27-6.35,3.56-8.67,2.3-2.31,5.35-3.59,8.6-3.59s6.31,1.28,8.61,3.59c2.3,2.32,3.56,5.39,3.56,8.67,0,1.03-.13,2.05-.38,3.04h.34s.03-.17.05-.24l12.26-2.79-11.52-2.64c.08-.11.25-.29.71-.64.33-.26.81-.35,1.32-.45.56-.1,1.14-.22,1.65-.57.51-.35.79-.81,1.07-1.25.33-.54.67-1.09,1.46-1.51,1.41-.74,2.91-.38,2.92-.38l.3.08-.12-.29c-.47-1.14-1.85-1.9-3.22-1.77-.71.07-1.39.49-2.05.89-.57.35-1.1.68-1.63.78-.47.08-.91,0-1.42-.11-.64-.13-1.41-.29-2.48-.15l5.88-9.38-10,6.34c-.03-.13-.03-.39.05-.97.05-.42.33-.82.61-1.25.32-.48.66-.97.77-1.58.12-.61,0-1.14-.13-1.64-.14-.61-.29-1.25-.02-2.11.48-1.53,1.79-2.34,1.8-2.35l.27-.16-.29-.12c-1.13-.47-2.65-.03-3.52,1.04-.46.56-.65,1.33-.82,2.09-.16.65-.31,1.27-.61,1.71-.27.39-.65.65-1.08.94-.54.36-1.2.8-1.86,1.66l-2.42-10.81-2.62,11.59c-.1-.07-.29-.24-.65-.72-.26-.33-.34-.82-.44-1.32-.11-.57-.22-1.15-.56-1.66-.35-.52-.8-.8-1.24-1.07-.53-.34-1.09-.68-1.5-1.47-.73-1.42-.38-2.93-.37-2.94l.07-.31-.29.12c-1.13.47-1.89,1.87-1.76,3.24.07.72.48,1.4.88,2.06.35.57.67,1.11.77,1.65.08.47,0,.92-.11,1.44-.13.64-.29,1.42-.15,2.51l-9.31-5.92,6.29,10.06c-.13.02-.38.03-.96-.05-.42-.05-.82-.33-1.24-.62-.48-.33-.97-.66-1.57-.78-.61-.11-1.13,0-1.63.13-.61.15-1.24.3-2.09.03-1.52-.49-2.32-1.8-2.32-1.82l-.16-.27-.12.29c-.47,1.15-.02,2.67,1.03,3.55.55.47,1.32.65,2.07.83.65.15,1.26.3,1.7.62.39.28.64.65.93,1.1.36.55.8,1.21,1.66,1.88l-10.74,2.44,12.25,2.81ZM78.86,60.37c.15-.75.23-1.52.24-2.3l10.46-.05-10.69,2.35ZM89.56,57.81l-10.46-.05c0-.78-.08-1.55-.23-2.3l10.69,2.35ZM80.44,50.37c.54.11,1.01.21,1.54.11.59-.1,1.17-.46,1.74-.81.62-.39,1.27-.78,1.91-.84,1.1-.1,2.24.46,2.76,1.31-.54-.08-1.69-.13-2.82.46-.87.45-1.23,1.05-1.58,1.62-.27.43-.51.84-.98,1.15-.45.31-1,.42-1.53.52-.54.1-1.05.2-1.44.5-.63.48-.77.69-.84.82l-.41-.1c-.31-1.38-.85-2.69-1.6-3.88l.61-.97c1.15-.19,1.94-.03,2.64.11ZM77,50.93c-.42-.64-.91-1.24-1.45-1.79l7.35-7.48-5.91,9.27ZM82.76,41.51l-7.42,7.41c-.56-.55-1.16-1.03-1.78-1.46l9.21-5.95ZM71.09,42.73c.46-.31.86-.58,1.17-1.02.34-.49.5-1.16.66-1.82.17-.72.35-1.46.76-1.96.7-.85,1.91-1.28,2.87-1.04-.44.33-1.29,1.11-1.67,2.33-.3.94-.13,1.61.02,2.27.12.49.23.96.12,1.5-.1.54-.42,1.01-.72,1.46-.31.46-.6.89-.67,1.38-.11.81-.07,1.05-.02,1.19l-.36.22c-1.19-.76-2.49-1.3-3.86-1.61l-.25-1.12c.68-.96,1.35-1.41,1.95-1.8ZM69.06,45.58c-.74-.15-1.51-.23-2.28-.24l-.05-10.52,2.33,10.76ZM66.52,34.82l-.05,10.52c-.78.01-1.55.09-2.29.24l2.34-10.76ZM43.7,58.02l10.44.05c0,.78.09,1.55.24,2.3l-10.67-2.35ZM59.13,43.99c.11-.55.21-1.02.11-1.55-.1-.59-.46-1.19-.81-1.76-.38-.63-.78-1.28-.84-1.92-.1-1.11.45-2.26,1.29-2.78-.07.55-.13,1.7.46,2.83.45.87,1.04,1.24,1.61,1.59.43.27.83.52,1.15.98.31.45.41,1,.52,1.54.1.54.2,1.06.5,1.46.49.65.69.78.82.85l-.1.41c-1.39.32-2.69.87-3.86,1.62l-.96-.62c-.2-1.16-.03-1.96.11-2.67ZM59.69,47.46c-.64.43-1.23.92-1.78,1.46l-7.42-7.4,9.2,5.95ZM50.34,41.66l7.35,7.47c-.54.55-1.02,1.16-1.45,1.8l-5.9-9.27ZM51.54,53.4c-.31-.46-.57-.87-1.01-1.18-.49-.34-1.16-.5-1.81-.67-.71-.17-1.45-.35-1.94-.76-.85-.71-1.26-1.92-1.03-2.89.33.44,1.1,1.3,2.31,1.68.93.3,1.61.13,2.26-.02.49-.12.95-.23,1.5-.13.54.1,1,.42,1.45.73.45.31.89.6,1.38.67.8.11,1.04.06,1.18.02l.23.37c-.74,1.19-1.29,2.5-1.6,3.9l-1.1.25c-.96-.69-1.41-1.37-1.81-1.98ZM54.37,55.46c-.15.74-.23,1.51-.24,2.29l-10.43.05,10.67-2.35Z"/>
  <path class="st0" d="M27.4,110.55c0,10.54,4.08,20.44,11.48,27.9,7.4,7.45,17.24,11.55,27.7,11.55s20.3-4.1,27.7-11.55c7.4-7.46,11.47-17.36,11.47-27.9v-49.59H27.4v49.59ZM28.41,61.97h76.34v48.57c0,10.26-3.97,19.92-11.18,27.18-7.18,7.24-16.73,11.23-26.79,11.26h0s-.31,0-.31,0h0c-10.09,0-19.66-3.99-26.87-11.25-7.21-7.26-11.18-16.92-11.18-27.18v-48.57Z"/>
  <path class="st0" d="M49.41,80.42c.27.11.73.2,1.14.12-.41.07-.87-.01-1.14-.12Z"/>
  <path class="st0" d="M81.01,110.12h.01v-39.1c0-.1.01-.2.03-.29,0-.01,0-.03,0-.04,0-.03.02-.06.03-.1.09-.34.24-.66.5-.92.13-.13.28-.23.43-.32-.16.09-.32.19-.45.33-.17.17-.28.37-.37.58.09-.21.21-.41.37-.58.13-.14.29-.24.45-.32.07-.04.16-.06.23-.09-.08.03-.16.05-.23.1.27-.15.58-.23.89-.23.5,0,.98.2,1.34.56.35.36.55.84.55,1.35v8.3h0v7.34h.02s.61,0,.61,0h0s1.32.01,1.32.01v5.96h4.17v-1.59h1.76v1.59h4.21v-4.51h-1.83v-1.52h1.83v-7.24h-1.83v-1.52h1.83v-4.51h-4.21v1.59h-1.76v-1.59h-4.17v5.97h-1.32s0-8.29,0-8.29c0-.68-.26-1.32-.74-1.8-.48-.48-1.11-.74-1.78-.74-1.39,0-2.52,1.14-2.52,2.54v39.1h.62ZM84.82,79.32h.24s-.24,0-.24,0h0ZM87.38,79.94v-5.96h2.91v1.59h3.02v-1.59h2.95v3.24h-1.83v2.79h1.83v5.97h-1.83v2.79h1.83v3.24h-2.95v-1.58h-3.02v1.58h-2.91v-5.97h-1.94v-6.09h1.94ZM84.45,69.89c-.06-.08-.12-.16-.19-.23-.11-.11-.23-.2-.36-.28.13.08.25.17.36.28.07.07.13.15.19.23ZM82.93,69.11c.2,0,.4.04.59.1-.19-.06-.38-.1-.59-.1-.05,0-.1.02-.15.02.05,0,.1-.02.15-.02Z"/>
  <polygon class="st0" points="84.82 86.66 84.8 86.66 84.8 110.12 84.82 110.12 84.82 110.12 85.43 110.12 85.43 86.67 84.82 86.66 84.82 86.66"/>
  <path class="st0" d="M45.69,80.76c1.04,0,1.85-.48,2.45-.83.11-.07.21-.12.31-.18,1.09-.6,1.55-.44,1.78-.37h.03s.12.05.12.05l.07-.1.19-.3.07-.12-.11-.09s-.65-.52-1.67-.52c-.51,0-.89.16-1.3.33-.48.2-.99.4-1.81.41-1.45.01-2.35-.98-2.35-.99l-.21-.23-.07.3c-.15.67-.04,1.25.32,1.7.58.74,1.64.94,2.18.94ZM45.82,79.36c.88,0,1.43-.24,1.92-.44.4-.16.74-.3,1.18-.3.67,0,1.15.25,1.36.38l-.04.07c-.29-.09-.84-.19-1.95.41-.1.06-.2.12-.32.18-.6.35-1.33.78-2.29.78-.45,0-1.42-.17-1.94-.81-.25-.31-.34-.7-.3-1.15.38.33,1.2.89,2.37.88Z"/>
  <path class="st0" d="M52.21,67.65c.24,0,.46-.09.63-.27.17-.16.26-.39.26-.63s-.09-.46-.26-.63c-.17-.17-.39-.26-.63-.26-.49,0-.88.4-.88.89,0,.24.09.47.26.63.17.17.39.27.63.27ZM51.8,66.35c.11-.11.25-.16.4-.16s.29.05.4.16c.11.11.17.26.17.4,0,.32-.26.58-.57.58-.15,0-.29-.06-.4-.17s-.17-.25-.17-.41c0-.15.06-.29.17-.4Z"/>
  <path class="st0" d="M71,125.1v1.27c0,.42.16.82.46,1.12.3.3.69.47,1.12.47h.38c.42,0,.82-.17,1.11-.47.3-.3.47-.7.47-1.12v-.65c1.15.44,2.2,1.12,3.09,2.01.9.91,1.58,1.98,2,3.15h-.64c-.87,0-1.58.71-1.58,1.58v.38c0,.42.17.82.46,1.12.3.3.7.47,1.12.47h1.26c.04.73.33,1.41.85,1.93.55.55,1.28.86,2.07.86s1.52-.31,2.07-.86c.52-.52.81-1.2.85-1.93h1.26c.42,0,.82-.17,1.11-.47.3-.3.46-.7.46-1.12v-.38c0-.42-.16-.82-.46-1.12-.3-.3-.69-.46-1.11-.46h-.87c.43-1.17,1.1-2.24,2.01-3.15.89-.89,1.95-1.58,3.09-2.01v.65c0,.42.17.82.47,1.12.29.3.69.47,1.11.47h.38c.42,0,.82-.17,1.11-.47.3-.3.46-.7.46-1.12v-1.27c.73-.04,1.4-.33,1.92-.85.55-.56.85-1.3.85-2.08s-.3-1.52-.85-2.08c-.52-.53-1.19-.82-1.92-.86v-1.27c0-.42-.16-.82-.46-1.12-.29-.3-.69-.47-1.11-.47h-.38c-.87,0-1.58.72-1.58,1.59v.87c-1.15-.43-2.22-1.11-3.11-2.02-.9-.91-1.58-1.97-2.01-3.14h.65c.42,0,.82-.16,1.12-.46.3-.3.46-.7.46-1.12v-.38c0-.42-.16-.82-.46-1.12-.3-.3-.69-.47-1.12-.47h-8.35c-.86,0-1.58.72-1.58,1.59v.38c0,.42.16.83.46,1.12.3.3.7.46,1.11.46h.86c-.88,2.37-2.74,4.25-5.07,5.14v-.85c0-.87-.71-1.59-1.58-1.59h-.38c-.42,0-.82.17-1.12.47-.3.3-.46.7-.46,1.12v1.27c-.72.04-1.4.33-1.92.86-.55.56-.86,1.3-.86,2.08s.31,1.53.86,2.08c.51.52,1.19.81,1.92.85ZM95.09,119.86c.56.04,1.08.27,1.47.67.43.43.67,1.01.67,1.63,0,1.22-.95,2.22-2.14,2.3v-4.6ZM92.19,117.96c0-.25.1-.49.28-.67.18-.18.41-.28.67-.28h.38c.26,0,.49.1.67.28.18.18.28.42.28.67v8.41c0,.52-.42.95-.95.95h-.38c-.25,0-.49-.1-.67-.28-.18-.18-.28-.42-.28-.67v-8.41ZM83.15,136.59c-.61,0-1.19-.24-1.62-.68-.4-.4-.63-.92-.66-1.48h4.57c-.08,1.2-1.07,2.16-2.28,2.16ZM87.33,131.51c.25,0,.49.1.67.28.18.18.28.42.28.68v.38c0,.52-.42.95-.94.95h-8.35c-.25,0-.49-.1-.67-.28-.18-.18-.28-.42-.28-.67v-.38c0-.26.1-.49.28-.68.18-.18.42-.28.67-.28h8.35ZM91.55,125.06c-2.69.94-4.83,3.1-5.76,5.82h-2.23c.51-1.92,1.51-3.67,2.94-5.11,1.42-1.43,3.16-2.44,5.05-2.97v2.26ZM83.04,130.41c-1.17-3.89-4.22-6.96-8.08-8.13,1.88-.57,3.6-1.61,5.03-3.05,1.43-1.44,2.45-3.17,3.02-5.07.57,1.89,1.59,3.63,3.02,5.07,1.43,1.45,3.17,2.48,5.06,3.05-3.85,1.18-6.89,4.24-8.05,8.12ZM88,117.26c1.02,1.03,2.24,1.78,3.56,2.24v2.24c-1.9-.52-3.64-1.52-5.07-2.97-1.43-1.44-2.43-3.19-2.95-5.11h2.23c.45,1.34,1.21,2.56,2.22,3.59ZM78.73,113.04c-.25,0-.49-.1-.67-.28-.18-.18-.28-.42-.28-.68v-.38c0-.25.1-.49.28-.67.18-.18.42-.28.67-.28h8.35c.25,0,.49.1.67.28.18.18.27.42.27.67v.38c0,.53-.42.95-.95.95h-8.35ZM74.53,119.49c1.31-.46,2.51-1.21,3.52-2.23,1.02-1.03,1.77-2.25,2.23-3.59h2.22c-1.06,3.9-4.11,6.98-7.97,8.07v-2.25ZM74.53,122.8c1.89.52,3.62,1.53,5.05,2.97,1.43,1.44,2.43,3.19,2.94,5.11h-2.23c-.93-2.72-3.07-4.88-5.76-5.82v-2.26ZM71.63,117.96c0-.25.1-.49.28-.67.18-.18.42-.28.67-.28h.38c.25,0,.49.1.67.28.18.18.28.42.28.67v8.41c0,.25-.1.49-.28.67-.18.18-.42.28-.67.28h-.38c-.52,0-.95-.43-.95-.95v-8.41ZM69.53,120.53c.39-.4.92-.63,1.47-.67v4.6c-1.19-.08-2.14-1.08-2.14-2.3,0-.62.24-1.2.67-1.63Z"/>
  <path class="st0" d="M90.29,88.7h3.02v-4.32h1.64v-2.79h-1.64v-4.31h-3.02v4.31h-1.7v2.79h1.7v4.32ZM89.22,83.75v-1.52h1.7v-4.32h1.76v4.32h1.64v1.52h-1.64v4.32h-1.76v-4.32h-1.7Z"/>
  <path class="st0" d="M51.45,71.27h.16v-1.25c0-.34-.13-.65-.36-.89-.24-.24-.55-.37-.89-.37-.69,0-1.25.57-1.25,1.26,0,.34.13.65.37.89.24.24.55.37.88.37h1.1ZM49.42,70.01c0-.25.1-.49.27-.67.17-.18.41-.28.66-.28s.49.1.66.28c.18.18.27.42.27.67v.94c-.3,0-.94,0-.94,0-.25,0-.49-.1-.66-.28-.18-.18-.27-.42-.27-.67Z"/>
  <path class="st0" d="M54.04,71.27c.34,0,.65-.13.89-.37.24-.23.37-.55.37-.89s-.13-.66-.37-.89c-.24-.24-.55-.37-.89-.37-.69,0-1.25.57-1.25,1.26v1.25h1.25ZM53.11,70.01c0-.25.09-.49.27-.67.18-.18.41-.28.66-.28s.49.1.66.28c.17.18.27.42.27.67,0,.52-.42.94-.94.94,0,0-.64,0-.93,0v-.94Z"/>
  <polygon class="st0" points="54.88 60.95 54.83 60.95 54.83 60.95 54.88 60.95"/>
  <path class="st0" d="M71.15,49.79l-2.7.59c.51-.57.4-2.11-1.84-2.12h0c-2.23,0-2.34,1.55-1.84,2.12l-2.7-.59-.82,1.4h4.75c-1.2-.59-.57-1.5.62-1.51,1.2,0,1.82.92.62,1.51h4.75l-.83-1.4Z"/>
  <polygon class="st0" points="61.22 52.1 58.73 52.1 59.25 52.69 59.25 58.6 58.73 59.18 61.22 59.18 60.7 58.6 60.7 52.69 61.22 52.1"/>
  <polygon class="st0" points="69.19 52.1 66.7 52.1 67.22 52.69 67.22 54.9 64.53 54.9 64.53 52.69 65.05 52.1 62.56 52.1 63.08 52.69 63.08 58.6 62.56 59.18 65.05 59.18 64.53 58.6 64.53 56.37 67.22 56.37 67.22 58.6 66.7 59.18 69.19 59.18 68.67 58.6 68.67 52.69 69.19 52.1"/>
  <polygon class="st0" points="74.65 59.18 75.48 57.71 72.62 57.71 73.79 55.65 72.62 53.62 74.9 53.62 74.06 52.12 70.06 52.13 72.06 55.65 70.06 59.18 74.65 59.18"/>
  <path class="st0" d="M41.26,126.27c-.63.21-.98.43-1.3.88-.33.45-.46,1.01-.36,1.56.14.84.77,1.51,1.59,1.7l.11.03.05-.11.11-.26.05-.11-.1-.07c-.15-.1-.26-.27-.3-.45-.04-.24.06-.48.25-.63.17.06.36.09.54.06.67-.05,1.18-.62,1.23-1.33h.03c.68-.3,2.26-.98,3.88-1.12,1.56-.13,2.38-.13,2.82-.13h.12c.17,0,.28.03.34.09.04.05.07.11.07.22,0,.22-.05.7-.07.87-.24.23-.38.55-.4.89-.01.21.03.41.1.6-.01.32-.22.6-.53.68-.2.06-.42.02-.59-.08l-.12-.07-.09.1-.21.23-.09.1.08.1c.57.76,1.53,1.09,2.44.84.59-.16,1.09-.55,1.4-1.09.3-.53.38-1.14.28-1.73,0-.19-.02-.44-.02-.53,0-2.17-1-3.02-1.89-3.35l4.12-5.22h0s0-.02,0-.02c.04-.07.08-.16.12-.27,0,0,0,0,0,0,.07-.23.08-.53-.05-.82.13.28.12.58.05.82.73.35,1.52.58,2.37.63,0-.05,0-.1,0-.15,0-2.8,1.75-5.18,4.2-6.13.33,2.99.19,5.95-3.37,9.15-1.23,1.11-2.15,2.62-2.15,4.42,0,.28.03.58.07.85,1.06-1.13,2.74-2.2,4.26-2.22-.76.9-2.23,2.05-3.64,3.71-.82.96-1.32,2.22-1.32,3.59,0,2.17,1.24,4.05,3.06,4.94-.06-1.02-.07-2.05.45-3.42.55-1.44,3.86-3.58,4.24-7.35.2.72.4,1.47.4,2.25,0,3.03-1.19,4.86-3.11,7.61.38.17.81.27,1.26.27.56,0,1.08-.15,1.53-.42.47,2.31,1.63,4.34,3.26,5.92h0s0,0,0,0h0s0,6.67,0,6.67h0s.31,0,.31,0V61.97h-.31s0,0,0,0v20.76c-.7-.98-1.65-1.77-2.77-2.24.56-.37.93-1,.93-1.72,0-.09,0-.17-.01-.26,0,0-.17,0-.24,0-3.84,0-4.29-5.15-9.47-5.23h0v-.95c.32-.12.62-.31.87-.57.46-.46.71-1.07.71-1.72s-.25-1.26-.71-1.72c-.45-.46-1.06-.71-1.71-.71-.52,0-1.02.17-1.46.49-.09.06-.23.06-.33.06h-.06c-.23,0-.36-.04-.39-.06-.42-.32-.92-.49-1.46-.49-1.33,0-2.42,1.09-2.42,2.43,0,.65.25,1.26.71,1.72.25.25.54.44.87.56v.95h-.34l-.37.64h0,0s0,0,0,0h0s-4.33,0-4.33,0c-.25,0-.49.13-.64.34-.2.29-.23.67-.1,1.1.26.76,1.07,2.11,1.11,2.17l.05.08h.62v-.56c0-.07.01-.21.11-.31.07-.07.17-.11.3-.11h1.81c.62,0,1.36.67,1.53,1.39l.28.06c.2-.25.42-.37.71-.37.24,0,.46.09.62.26.17.17.26.39.26.63,0,.25-.12.54-.3.68-.46.41-1.01.85-1.63.85h-.08l-.05.06-.1.15-.09.12.11.09c.45.36,1.3.49,2,.19h0s0-.02,0-.02h0c.22-.04.44-.08.67-.1,2.23-.17,4.19,1.53,4.37,3.86.04.6-.04,1.15-.22,1.68.31.25.69.38,1.11.38.37,0,.64-.09.92-.27-.93,1.13-1.48,2.57-1.48,4.15,0,.52.06,1.03.18,1.52-.55-.47-1.26-.77-2.04-.77-1,0-1.91.47-2.47,1.21-.33.44-.85.73-1.43.73-.39,0-.76-.13-1.05-.34.73-.23,1.26-.92,1.26-1.73,0-.45-.14-.82-.4-1.14l-14.71-15.44c-1.82-2-2.8-4.04-3.26-5.23-1.46.88-2.43,2.48-2.43,4.32,0,1.64.79,3.11,2,4.03l11.02,9.71.1.07c-.12.25-.23.49-.34.75-.22-.13-4.81-2.85-7.02-4.15-2.27-1.34-3.65-2.37-5.79-4.78-.48.76-.74,1.69-.74,2.65,0,1.86,1,3.48,2.49,4.35l10.36,4.77c-.03.35-.06.71-.06,1.06,0,.01,0,.03,0,.05-.44-.06-4.12-.54-4.77-.66-.69-.12-4.36-.71-8.36-2.36-.02.17-.03.35-.03.52,0,2.77,2.23,5.03,4.99,5.03l8.5.03c.09.35.2.7.33,1.03-.18.04-7.17,1.69-8.32,1.9-1.17.22-4.12.79-5.26.64.54,2.19,2.5,3.82,4.85,3.82.63,0,1.22-.12,1.78-.33l8.27-3.56c.17.24.3.41.49.63h0s-7.57,6.65-8.61,7.45c-1.04.79-2.17,1.72-4.38,2.74.92,1.09,2.28,1.78,3.81,1.78s2.92-.71,3.84-1.82l7.37-8.32v.02c.27.17.53.34.79.49l-3.23,7.02c-1.13,2.41-2.67,5.97-5.22,8.55.74.45,1.61.7,2.54.7,2.28,0,4.21-1.55,4.8-3.66l3.4-11.67c.43.11.88.2,1.33.26-.04.52-.31,3.58-.89,7.02.15.02.31.04.46.04,1.73,0,3.14-1.42,3.14-3.17l-.15-3.87h-.02c1.53-.18,2.96-.69,4.21-1.48l1.8,5.07c-1.87.68-3.8,1.99-5.09,3.72-1.51,2.03-2.21,3.67-5.23,4.77.56.55,1.33.89,2.17.89.12,0,.24,0,.36-.02.3.75.76,1.43,1.3,2.01,0,0,0,0,0,0,.04.05.09.09.13.14-.04-.05-.09-.09-.13-.14-.1.07-.2.14-.26.22-.21.27-3.98,4.78-4.63,5.55-.12-.1-.3-.24-.52-.48-.84-.9-2.11-2.26-2.96-2.75-.02,0-.03-.02-.05-.03-.4-.35-.88-.56-1.41-.58-.55-.02-1.08.17-1.49.55-.62.58-.84,1.47-.54,2.27l.04.11.11-.02.28-.04.12-.02v-.12c0-.18.08-.37.22-.5.21-.19.52-.22.77-.08.06.23.18.46.36.65.33.34.79.44,1.28.32l.82.75c-1.34-.08-4.07-.06-4.23-.06-.06,0-.13,0-.2,0-.68-.05-1.08-.05-1.47.15-.49.26-.88.66-1.07,1.19-.29.8-.06,1.69.58,2.27l.09.07.09-.07.22-.17.1-.07-.06-.11c-.09-.16-.1-.36-.04-.55.1-.29.4-.47.71-.43.16.18.38.31.62.38.35.09.71.04,1.02-.14.27-.16.48-.4.59-.7.9.07,1.54.22,1.9.32l-2.39,1.01c-.2.07-.27.08-.38.13ZM66.45,82.74s0,0,0,0v59.57c.05.05.1.11.16.16h0c-.05-.05-.1-.11-.16-.16h0s0,0,0,0v-59.57ZM49.83,73.28v-.85s0,0,0,0v.85h0s0,0,0,0ZM48.87,71.55c-.4-.4-.62-.93-.62-1.49s.22-1.1.62-1.5c.4-.4.92-.62,1.48-.62.47,0,.9.15,1.27.43.13.1.39.12.58.12h.06c.14,0,.35.01.52-.12.38-.28.82-.43,1.27-.43.57,0,1.09.22,1.49.62.4.4.61.93.61,1.5,0,1.16-.95,2.11-2.1,2.11h-3.7c-.56,0-1.09-.22-1.48-.62ZM48.66,74.16l-.04.06h0s.03-.06.03-.06ZM50.94,80.42h0c-.05.02-.11.03-.17.05.06-.02.12-.03.17-.05h0c-.11.06-.24.1-.37.12,0,0-.01,0-.02,0-.41.08-.87-.01-1.14-.12.64-.08,1.18-.51,1.64-.91.24-.21.4-.58.4-.92,0-.32-.12-.62-.35-.85-.22-.23-.52-.35-.84-.35-.29,0-.55.1-.77.29-.3-.74-1.07-1.36-1.75-1.36h-1.81c-.54,0-.73.39-.73.73v.25h-.13c-.18-.3-.82-1.4-1.04-2.03-.1-.32-.09-.61.06-.8.09-.14.24-.21.38-.21h4.14,0s1.96,1.32,2.74,1.94c.58.46.93,1.18.93,1.98,0,.05-.02.1-.02.15-.06.89-.56,1.66-1.29,2.08-.01,0-.02.01-.03.02,0,0,0,0,0,0,0,0,0,0,0,0,0,0,0,0,0,0h0s0,0,0,0c0,0,0,0,0,0h0ZM54.31,75h-.95c0,.56-.45,1.02-1.01,1.02s-1.01-.46-1.01-1.02h-.94v-.7h3.91v.7ZM54.57,73.29h0s0,0,0,0h0s0,0,0,0v-.85s0,0,0,0v.85h0s0,0,0,0h0s0,0,0,0h0s0,0,0,0h0s.27,0,.27,0c.01,0,.02,0,.03,0h-.3ZM41.15,130.06l-.02.04c-.66-.19-1.15-.75-1.26-1.43-.08-.48.03-.96.31-1.35.05-.07.08-.12.15-.21.14-.16.29-.24.29-.24-.14.23-.19.54-.17.76.03.36.2.69.47.92.05.04.11.08.16.12-.2.21-.3.5-.25.8.04.23.15.43.32.58ZM52.05,129.6c-.26.46-.69.8-1.21.94-.74.2-1.52-.04-2.02-.62l.03-.04c.22.1.48.12.73.06.32-.09.56-.32.69-.62h0c.31.3,1.07.73,1.77.21.03-.02.05-.04.08-.05-.02.04-.04.08-.06.12ZM54.24,117.22c-.24-.11-.47-.15-.68-.13.21-.02.44.02.68.13ZM42.65,121s-.07-.04-.07-.04c-.3-.06-.61.01-.84.22-.17.15-.28.36-.3.58h-.05c-.2-.65,0-1.37.5-1.84.35-.33.81-.49,1.29-.47.08,0,.16.01.24.03l.4.15c-.28.04-.57.17-.81.42-.25.26-.37.6-.36.95ZM39.55,125.01c-.29.08-.53.29-.64.59-.08.21-.07.45,0,.66l-.04.03c-.48-.49-.65-1.21-.42-1.87.16-.45.49-.82.92-1.03.08-.03.14-.09.28-.12.29-.07.47-.06.47-.06-.21.12-.5.49-.58.78-.09.34-.04.71.13,1.02-.08,0-.15,0-.15,0ZM44.53,125.26l.33-.14-.33-.15s-.85-.37-2.5-.49h-.13s-.04.12-.04.12c-.07.27-.24.49-.48.63-.24.14-.52.17-.78.1-.27-.07-.49-.24-.62-.48-.13-.24-.17-.53-.1-.79.16-.59.72-.81,1.04-.77h.02s3.68-.03,4.66.09l.56.07-.44-.35-1.22-1.12-.06-.06-.08.03c-.29.08-.72.12-1.06-.23-.41-.41-.43-1.06-.05-1.46.4-.41.94-.4,1.27-.21.81.46,2.11,1.86,2.88,2.69.35.38.57.53.68.61l.12.08.09-.11c.19-.22,4.5-5.38,4.73-5.67.05-.06.13-.13.23-.18,0,0,0,0,0,0,0,0,0,0,0,0,.42.4.89.75,1.41,1.03.06-.23.07-.59-.29-.86-.32-.24-.61-.29-.84-.25.24-.04.53,0,.85.25.36.27.35.63.29.86.09.05.18.08.27.12-.09-.04-.18-.08-.27-.12-.04.14-.09.23-.09.24l-4.25,5.38-.15.19.23.06c1.23.35,1.93,1.58,1.91,3.27,0,.12,0,.18,0,.25.02.49.09.99-.45,1.38-.66.49-1.33-.14-1.35-.17-.17-.2-.27-.46-.25-.74.01-.27.14-.53.34-.72l.04-.04v-.06s.09-.68.09-.96c0-.19-.06-.34-.16-.44-.12-.12-.31-.18-.57-.18h-.12c-.41,0-1.27,0-2.86.12-1.66.15-3.28.83-3.97,1.13l-.12.05-.1.04v.11c0,.61-.39,1.09-.94,1.13-.28.02-.54-.06-.75-.24-.21-.18-.34-.43-.36-.71-.04-.56.24-1,.93-1.17l2.83-1.18ZM53.46,117.4s0,0,0,0c0,0,0,0,0,0Z"/>
</svg>