<?xml version="1.0" encoding="UTF-8"?>
<svg id="Calque_1" xmlns="http://www.w3.org/2000/svg" xmlns:xlink="http://www.w3.org/1999/xlink" version="1.1" viewBox="0 0 221.15 205.36">
  <!-- Generator: Adobe Illustrator 30.0.0, SVG Export Plug-In . SVG Version: 2.1.1 Build 123)  -->
  <defs>
    <style>
      .st0 {
        fill: none;
      }

      .st1 {
        fill: #ff0;
      }

      .st2 {
        clip-path: url(#clippath);
      }
    </style>
    <clipPath id="clippath">
      <rect class="st0" x="18.96" y="26.85" width="175.29" height="145.08"/>
    </clipPath>
  </defs>
  <g class="st2">
    <path class="st1" d="M126.24,171.93l-74.73-41.31H18.96v-62.47h32.55L126.24,26.85v48.07c12,2.35,21.04,12.43,21.04,24.48s-9.05,22.13-21.04,24.47v48.07h0ZM29.66,119.93h24.61l61.27,33.87V44.99l-61.27,33.87h-24.61v41.07ZM126.24,85.95v26.87c6.03-2,10.34-7.27,10.34-13.44s-4.32-11.44-10.34-13.44h0ZM143.48,164.88l-3.1-10.23c25.82-7.84,43.16-30.04,43.16-55.26s-16.9-46.79-42.06-54.91l3.28-10.18c29.59,9.55,49.47,35.71,49.47,65.09s-20.39,56.28-50.75,65.49c-.52.16-1.04.23-1.56.23h.02"/>
  </g>
</svg>